<?xml version="1.0" encoding="UTF-8"?>
<!DOCTYPE svg PUBLIC "-//W3C//DTD SVG 1.1//EN" "http://www.w3.org/Graphics/SVG/1.1/DTD/svg11.dtd">
<!-- Creator: CorelDRAW -->
<svg xmlns="http://www.w3.org/2000/svg" xml:space="preserve" width="39.6315mm" height="28.5938mm" version="1.1" style="shape-rendering:geometricPrecision; text-rendering:geometricPrecision; image-rendering:optimizeQuality; fill-rule:evenodd; clip-rule:evenodd"
viewBox="0 0 1493.78 1077.75"
 xmlns:xlink="http://www.w3.org/1999/xlink"
 xmlns:xodm="http://www.corel.com/coreldraw/odm/2003">
 <defs>
  <style type="text/css">
   <![CDATA[
    .fil0 {fill:#FEFEFE}
   ]]>
  </style>
 </defs>
 <g id="Layer_x0020_1">
  <metadata id="CorelCorpID_0Corel-Layer"/>
  <path class="fil0" d="M253.99 471.96l1166.82 0c2.07,34.13 30.3,61.09 64.95,61.09 2.73,0 5.41,-0.17 8.02,-0.49l0 484.58c-2.64,-0.32 -5.32,-0.49 -8.05,-0.49 -34.62,0 -62.85,27 -64.92,61.09l-1166.82 0c-1.93,-31.88 -26.74,-57.56 -58.28,-60.75l0 -484.3c31.54,-3.19 56.35,-28.86 58.28,-60.75zm991.72 396.24l31.04 0 0 70.72 -31.04 0 0 -70.72zm0 125.74l31.04 0 0 70.72 -31.04 0 0 -70.72zm0 -509.67l31.04 0 0 70.72 -31.04 0 0 -70.72zm0 125.74l31.04 0 0 70.72 -31.04 0 0 -70.72zm14.91 98.67c36.55,0 66.17,29.63 66.17,66.17 0,36.55 -29.63,66.17 -66.17,66.17 -36.54,0 -66.17,-29.63 -66.17,-66.17 0,-36.54 29.63,-66.17 66.17,-66.17zm-256.84 101.27c-21.64,0 -42.7,1.94 -62.94,5.6 -35.36,-100.73 -73.65,-167.59 -176.93,-286.94l271.42 0c1.32,21.94 19.46,39.27 41.75,39.27 1.75,0 3.48,-0.12 5.14,-0.32l2.04 251.63c-25.51,-6.02 -52.52,-9.25 -80.49,-9.25zm-85.13 10.39c-49.22,12.36 -92.62,35.15 -126.11,65.11 -145.28,-189.28 -301.08,-302.19 -540.61,-318.42 18.25,-3.73 32.14,-19.34 33.29,-38.41l432.43 0c82.32,66.88 151,160.8 201,291.72zm-144 82.82c-30.51,33.54 -49.66,74.04 -53,117.94l-433.07 0c-1.24,-20.5 -17.19,-37 -37.46,-39.04l-3.11 -383.43c242.1,12.66 401.8,136.7 526.64,304.53zm-34.96 117.94c3.13,-38.51 19.25,-74.21 44.94,-104.33 24.1,33.33 46.92,68.27 68.8,104.33l-113.74 0zm62.63 -122.78c31.77,-29.64 73.67,-52.19 121.45,-64.24 20.29,55.62 37.31,117.71 50.68,187.02l-86.85 0c-28.45,-43.79 -56.69,-84.76 -85.27,-122.78zm143.29 -68.93c18.72,-3.34 38.19,-5.11 58.17,-5.11 28.11,0 55.2,3.5 80.61,9.96l1.2 147.91c-1.7,-0.2 6.81,-0.32 -5.18,-0.32 -11.99,0 -40.39,17.36 -41.72,39.27l-33.64 0c-24.75,-80 -42.08,-140.44 -59.46,-191.71z"/>
  <path class="fil0" d="M37.97 341.14l1115.83 -341.14c11.96,32.03 46.85,49.56 79.97,39.43 2.61,-0.8 5.11,-1.75 7.53,-2.81l115.05 376.32 -428.38 0 -70 -222.51c-1.54,0.68 -3.15,1.3 -4.83,1.81 -21.31,6.51 -43.73,-4.76 -51.41,-25.36l-259.56 79.36c102.22,64.2 159.12,110.16 208.53,166.69l-32.98 0c-69.53,-72.72 -143.1,-122.04 -219.79,-153.16l-413.54 126.43c4.47,18.58 -4.24,37.56 -20.61,46.47 30.45,-7.1 60.03,-12.22 88.87,-15.44l0 31.12c-27.14,3.41 -54.92,8.59 -83.37,15.69l83.37 264.98 0 149.17c-3.67,0.09 -7.36,0.49 -11.06,1.22l-141.6 -463.13c29.23,-12.27 45.45,-44.08 37.97,-75.13zm951.98 -278.17l29.69 -9.08 20.68 67.64 -29.68 9.08 -20.68 -67.64zm36.76 120.25l29.69 -9.08 20.68 67.64 -29.69 9.08 -20.67 -67.64zm43.11 90c34.95,-10.69 71.94,8.99 82.62,43.93 10.68,34.95 -8.99,71.94 -43.93,82.62 -34.95,10.68 -71.94,-8.99 -82.62,-43.93 -10.68,-34.95 8.99,-71.94 43.93,-82.62z"/>
 </g>
</svg>
