<?xml version="1.0" encoding="UTF-8"?>
<!DOCTYPE svg PUBLIC "-//W3C//DTD SVG 1.1//EN" "http://www.w3.org/Graphics/SVG/1.1/DTD/svg11.dtd">
<!-- Creator: CorelDRAW -->
<svg xmlns="http://www.w3.org/2000/svg" xml:space="preserve" width="86.6987mm" height="86.6987mm" version="1.1" style="shape-rendering:geometricPrecision; text-rendering:geometricPrecision; image-rendering:optimizeQuality; fill-rule:evenodd; clip-rule:evenodd"
viewBox="0 0 1776.18 1776.18"
 xmlns:xlink="http://www.w3.org/1999/xlink"
 xmlns:xodm="http://www.corel.com/coreldraw/odm/2003">
 <defs>
  <style type="text/css">
   <![CDATA[
    .fil0 {fill:#010101}
   ]]>
  </style>
 </defs>
 <g id="Layer_x0020_1">
  <metadata id="CorelCorpID_0Corel-Layer"/>
  <path class="fil0" d="M888.09 0c490.48,0 888.09,397.61 888.09,888.09 0,490.48 -397.61,888.09 -888.09,888.09 -490.48,0 -888.09,-397.61 -888.09,-888.09 0,-490.48 397.61,-888.09 888.09,-888.09zm-0 6.92c486.66,0 881.17,394.51 881.17,881.17 0,486.66 -394.51,881.17 -881.17,881.17 -486.66,0 -881.17,-394.51 -881.17,-881.17 0,-486.66 394.51,-881.17 881.17,-881.17z"/>
  <path class="fil0" d="M1094.97 72.65c1.62,-6.04 7.83,-9.63 13.87,-8.01 6.04,1.62 9.63,7.83 8.01,13.87 -1.62,6.04 -7.83,9.62 -13.87,8.01 -6.04,-1.62 -9.62,-7.83 -8.01,-13.87zm-435.42 1625.02c1.62,-6.04 7.83,-9.62 13.87,-8.01 6.04,1.62 9.62,7.83 8.01,13.87 -1.62,6.04 -7.83,9.63 -13.87,8.01 -6.04,-1.62 -9.63,-7.83 -8.01,-13.87zm0 -1619.16c-1.62,-6.04 1.96,-12.25 8.01,-13.87 6.04,-1.62 12.25,1.96 13.87,8.01 1.62,6.04 -1.97,12.25 -8.01,13.87 -6.04,1.62 -12.25,-1.97 -13.87,-8.01zm435.42 1625.02c-1.62,-6.04 1.97,-12.25 8.01,-13.87 6.04,-1.62 12.25,1.97 13.87,8.01 1.62,6.04 -1.96,12.25 -8.01,13.87 -6.04,1.62 -12.25,-1.96 -13.87,-8.01zm-637.16 -92.63c-3.13,5.42 -1.27,12.34 4.14,15.47 5.42,3.13 12.34,1.27 15.47,-4.14 3.13,-5.42 1.27,-12.34 -4.15,-15.47 -5.41,-3.13 -12.34,-1.27 -15.47,4.14zm841.17 -1456.95c-3.13,5.42 -1.27,12.34 4.14,15.47 5.42,3.13 12.34,1.27 15.47,-4.14 3.13,-5.42 1.27,-12.34 -4.14,-15.47 -5.41,-3.13 -12.34,-1.27 -15.47,4.14zm19.61 1456.95c3.13,5.42 1.27,12.34 -4.14,15.47 -5.41,3.13 -12.34,1.27 -15.47,-4.15 -3.13,-5.41 -1.27,-12.34 4.14,-15.47 5.42,-3.13 12.34,-1.27 15.47,4.14zm-841.17 -1456.95c3.13,5.41 1.27,12.34 -4.15,15.47 -5.41,3.13 -12.34,1.27 -15.47,-4.14 -3.13,-5.42 -1.27,-12.34 4.14,-15.47 5.41,-3.13 12.34,-1.27 15.47,4.15zm1144.92 1144.92c5.42,3.13 7.27,10.05 4.14,15.47 -3.13,5.41 -10.05,7.27 -15.47,4.14 -5.42,-3.13 -7.27,-10.05 -4.15,-15.47 3.13,-5.42 10.05,-7.27 15.47,-4.14zm-1456.95 -841.17c5.42,3.13 7.27,10.05 4.14,15.47 -3.13,5.42 -10.05,7.27 -15.47,4.14 -5.41,-3.13 -7.27,-10.05 -4.14,-15.47 3.13,-5.41 10.05,-7.27 15.47,-4.14zm1445.62 0c5.42,-3.13 12.34,-1.27 15.47,4.14 3.13,5.42 1.27,12.34 -4.14,15.47 -5.42,3.13 -12.34,1.27 -15.47,-4.15 -3.13,-5.42 -1.27,-12.34 4.14,-15.47zm-1456.95 841.17c5.42,-3.13 12.34,-1.27 15.47,4.15 3.13,5.42 1.27,12.34 -4.14,15.47 -5.42,3.13 -12.34,1.27 -15.47,-4.14 -3.13,-5.42 -1.27,-12.34 4.14,-15.47zm1549.58 -204.01c6.04,1.62 9.62,7.83 8.01,13.87 -1.62,6.04 -7.83,9.63 -13.87,8.01 -6.04,-1.62 -9.62,-7.83 -8.01,-13.87 1.62,-6.04 7.83,-9.62 13.87,-8.01zm-1625.02 -435.42c6.04,1.62 9.62,7.83 8,13.87 -1.62,6.04 -7.83,9.62 -13.87,8.01 -6.04,-1.62 -9.63,-7.83 -8.01,-13.87 1.62,-6.04 7.83,-9.63 13.87,-8.01zm1619.15 0c6.04,-1.62 12.25,1.96 13.87,8.01 1.62,6.04 -1.96,12.25 -8.01,13.87 -6.04,1.62 -12.25,-1.97 -13.87,-8.01 -1.62,-6.04 1.97,-12.25 8.01,-13.87zm-1625.02 435.42c6.04,-1.62 12.25,1.97 13.87,8.01 1.62,6.04 -1.96,12.25 -8.01,13.87 -6.04,1.62 -12.25,-1.96 -13.87,-8.01 -1.62,-6.04 1.96,-12.25 8,-13.87zm1418.25 380.02c4.42,4.42 4.42,11.59 0,16.01 -4.42,4.42 -11.59,4.42 -16.01,0 -4.42,-4.42 -4.42,-11.59 0,-16.01 4.42,-4.42 11.59,-4.42 16.01,0zm-1189.6 -1189.6c4.42,4.42 4.42,11.59 0,16.01 -4.42,4.42 -11.59,4.42 -16.01,0 -4.42,-4.42 -4.42,-11.59 0,-16.01 4.42,-4.42 11.59,-4.42 16.01,0zm1173.58 0c4.42,-4.42 11.59,-4.42 16.01,0 4.42,4.42 4.42,11.59 0,16.01 -4.42,4.42 -11.59,4.42 -16.01,0 -4.42,-4.42 -4.42,-11.59 0,-16.01zm-1189.6 1189.6c4.42,-4.42 11.59,-4.42 16.01,0 4.42,4.42 4.42,11.59 0,16.01 -4.42,4.42 -11.59,4.42 -16.01,0 -4.42,-4.42 -4.42,-11.59 0,-16.01zm591.48 -1427.96c0,-6.25 5.07,-11.32 11.32,-11.32 6.25,0 11.32,5.07 11.32,11.32 0,6.25 -5.07,11.33 -11.32,11.33 -6.25,0 -11.32,-5.07 -11.32,-11.33zm0 1682.34c0,-6.25 5.07,-11.33 11.32,-11.33 6.25,0 11.32,5.07 11.32,11.33 0,6.25 -5.07,11.32 -11.32,11.32 -6.25,0 -11.32,-5.07 -11.32,-11.32zm852.49 -852.49c6.25,0 11.32,5.07 11.32,11.32 0,6.25 -5.07,11.32 -11.32,11.32 -6.25,0 -11.33,-5.07 -11.33,-11.32 0,-6.25 5.07,-11.32 11.33,-11.32zm-1682.34 0c6.25,0 11.33,5.07 11.33,11.32 0,6.25 -5.07,11.32 -11.33,11.32 -6.25,0 -11.33,-5.07 -11.33,-11.32 0,-6.25 5.07,-11.32 11.33,-11.32z"/>
  <path class="fil0" d="M888.09 87.69c442.05,0 800.4,358.35 800.4,800.4 0,442.05 -358.35,800.4 -800.4,800.4 -442.05,0 -800.4,-358.35 -800.4,-800.4 0,-442.05 358.35,-800.4 800.4,-800.4zm-0 6.23c438.61,0 794.17,355.56 794.17,794.17 0,438.61 -355.56,794.17 -794.17,794.17 -438.61,0 -794.17,-355.56 -794.17,-794.17 0,-438.61 355.56,-794.17 794.17,-794.17z"/>
 </g>
</svg>
