<?xml version="1.0" encoding="UTF-8"?>
<!DOCTYPE svg PUBLIC "-//W3C//DTD SVG 1.1//EN" "http://www.w3.org/Graphics/SVG/1.1/DTD/svg11.dtd">
<!-- Creator: CorelDRAW -->
<svg xmlns="http://www.w3.org/2000/svg" xml:space="preserve" width="86.6987mm" height="87.0955mm" version="1.1" style="shape-rendering:geometricPrecision; text-rendering:geometricPrecision; image-rendering:optimizeQuality; fill-rule:evenodd; clip-rule:evenodd"
viewBox="0 0 1708.48 1716.3"
 xmlns:xlink="http://www.w3.org/1999/xlink"
 xmlns:xodm="http://www.corel.com/coreldraw/odm/2003">
 <defs>
  <style type="text/css">
   <![CDATA[
    .fil0 {fill:#A9A9AB}
   ]]>
  </style>
 </defs>
 <g id="Layer_x0020_1">
  <metadata id="CorelCorpID_0Corel-Layer"/>
  <path class="fil0" d="M854.24 7.82c276.76,0 522.73,131.65 678.83,335.7 1.51,-0.83 3.24,-1.3 5.08,-1.3 5.82,0 10.54,4.72 10.54,10.54 0,2.93 -1.2,5.59 -3.14,7.5 102.45,140.89 162.93,314.27 162.93,501.8 0,189.6 -61.81,364.75 -166.32,506.47 1.95,1.91 3.16,4.58 3.16,7.52 0,5.82 -4.72,10.54 -10.54,10.54 -1.91,0 -3.7,-0.51 -5.25,-1.4 -156.27,201.43 -400.62,331.11 -675.29,331.11 -182.98,0 -352.51,-57.56 -491.51,-155.53 0.04,-0.04 -2.82,3.11 -7.48,3.11 -5.82,0 -10.54,-4.72 -10.54,-10.54 0,-1.72 0.41,-3.34 1.14,-4.77 -209.84,-155.65 -345.85,-405.19 -345.85,-686.52 0,-62.05 6.68,-122.53 19.24,-180.82 -3.77,-1.6 -6.42,-5.34 -6.42,-9.7 0,-5.82 4.72,-10.54 10.54,-10.54 0.17,0 0.34,0 0.51,0.01 86.3,-357.69 397.64,-627.59 775.81,-651.43 0.48,-5.37 5,-9.58 10.49,-9.58 5.12,0 9.39,3.65 10.34,8.49 11.19,-0.44 22.43,-0.67 33.73,-0.67zm685.62 1359c104.16,-141.24 165.75,-315.8 165.75,-504.76 0,-186.89 -60.27,-359.67 -162.36,-500.09 -1.51,0.84 -3.26,1.32 -5.11,1.32 -5.82,0 -10.54,-4.72 -10.54,-10.54 0,-2.95 1.21,-5.61 3.16,-7.52 -155.58,-203.35 -400.71,-334.55 -676.53,-334.55 -11.24,0 -22.43,0.23 -33.56,0.67 -0.42,5.44 -4.96,9.72 -10.51,9.72 -5.17,0 -9.47,-3.72 -10.37,-8.64 -376.83,23.78 -687.06,292.7 -773.12,649.1 4.19,1.39 7.21,5.34 7.21,10 0,5.82 -4.72,10.54 -10.54,10.54 -0.46,0 -0.9,-0.03 -1.35,-0.08 -12.51,58.05 -19.15,118.28 -19.15,180.08 0,280.35 135.53,529.04 344.62,684.16l-0.01 0.01c1.93,-2.1 4.69,-3.42 7.77,-3.42 5.82,0 10.54,4.72 10.54,10.54 0,1.86 -0.48,3.62 -1.34,5.14 138.53,97.6 307.45,154.95 489.79,154.95 273.75,0 517.29,-129.24 673.03,-329.99 -1.87,-1.9 -3.02,-4.51 -3.02,-7.39 0,-5.82 4.72,-10.54 10.54,-10.54 1.84,0 3.57,0.47 5.08,1.3zm-5.08 1.36c4.35,0 7.87,3.52 7.87,7.87 0,4.35 -3.52,7.87 -7.87,7.87 -4.35,0 -7.87,-3.52 -7.87,-7.87 0,-4.35 3.52,-7.87 7.87,-7.87zm3.36 -1023.3c4.35,0 7.87,3.52 7.87,7.87 0,4.35 -3.52,7.87 -7.87,7.87 -4.35,0 -7.87,-3.52 -7.87,-7.87 0,-4.35 3.52,-7.87 7.87,-7.87zm-727.98 -342.22c4.35,0 7.87,3.52 7.87,7.87 0,4.35 -3.52,7.87 -7.87,7.87 -4.35,0 -7.87,-3.52 -7.87,-7.87 0,-4.35 3.52,-7.87 7.87,-7.87zm-786.81 661c4.35,0 7.87,3.52 7.87,7.87 0,4.35 -3.52,7.87 -7.87,7.87 -4.35,0 -7.87,-3.52 -7.87,-7.87 0,-4.35 3.52,-7.87 7.87,-7.87zm331.89 881.82c4.35,0 7.87,3.52 7.87,7.87 0,4.35 -3.52,7.87 -7.87,7.87 -4.35,0 -7.87,-3.52 -7.87,-7.87 0,-4.35 3.52,-7.87 7.87,-7.87z"/>
 </g>
</svg>
