<?xml version="1.0" standalone="no"?>
<!DOCTYPE svg PUBLIC "-//W3C//DTD SVG 1.1//EN" "http://www.w3.org/Graphics/SVG/1.1/DTD/svg11.dtd">
<svg xmlns="http://www.w3.org/2000/svg">
<metadata>Generated by Fontastic.me</metadata>
<defs>
<font id="hsr-icon" horiz-adv-x="512">
<font-face font-family="hsr-icon" units-per-em="512" ascent="480" descent="-32"/>
<missing-glyph horiz-adv-x="512" />

<glyph glyph-name="close" unicode="&#97;" d="M33 0l-33 33 181 181 34-33z m203 276c11 11 29 11 40 0 11-11 11-29 0-40-11-11-29-11-40 0-11 11-11 29 0 40z m-55 21l-181 182 33 33 182-181z m117 34l181 181 33-33-181-182z m33-117l181-181-33-34-181 182z"/>
<glyph glyph-name="star" unicode="&#98;" d="M259 459c-2 2-4 4-6 6-1-5-3-10-6-14 0 6 2 12 4 17 6 0 9-3 8-9z m146-178c14-7 29-12 44-16-15 2-29 6-42 12-2 1-2 2-2 4z m0-46c-2-2-4-3-6-4 1 3 3 4 6 4z m-168-140c5-3 7-8 6-14-2 4-4 9-6 14z m26-28c-1-8-3-15-6-22-6 3-9 9-8 16 3-4 5-8 6-12 3 6 5 12 8 18z m-4 392c20-83 69-142 146-178 0-2 0-3 2-4 13-6 27-10 42-12 5-1 11-1 16-2 0-3 0-6-2-9-20-5-39-11-58-19-3 0-5-1-6-4-69-35-115-89-136-164-3-6-5-12-8-18-1 4-3 8-6 12-3 6-5 13-6 20 1 6-1 11-6 14-37 85-101 137-192 157-1 3-1 6 0 9 104 24 171 87 202 190 3 4 5 9 6 14 2-2 4-4 6-6z"/>
<glyph glyph-name="skip" unicode="&#99;" d="M479 236l-104-60-139-81 0 136-96-55-140-81 0 323 38-22 0-245 186 105-144 84 0 35 156-93 0 136 38-22c0-97 0-152 0-245l186 105-144 84 0 35 163-98 0 148 33 0 0-337-33 0 0 148z"/>
<glyph glyph-name="shrink" unicode="&#100;" d="M185 208l-120-121c-6-6-6-16 0-22 6-6 16-6 22 0l121 120 0-57c0-9 7-16 16-16 9 0 16 7 16 16l0 96c0 4-2 8-5 11-3 3-7 5-11 5l-96 0c-9 0-16-7-16-16 0-9 7-16 16-16z m92 69c-3 3-5 7-5 11l0 96c0 9 7 16 16 16 9 0 16-7 16-16l0-57 121 120c4 4 10 6 15 5 6-2 10-6 12-12 1-5-1-11-5-15l-120-121 57 0c9 0 16-7 16-16 0-9-7-16-16-16l-96 0c-4 0-8 2-11 5z"/>
<glyph glyph-name="fullscreen" unicode="&#101;" d="M65 462c-6-2-10-6-12-11l-2-3 0-382 2-3c2-5 7-9 11-10 3-1 17-1 193 0l190 0 3 1c4 2 7 5 9 9l2 3 0 144-2 3c-3 6-8 10-14 11-10 1-20-6-21-16-1-2-1-26-1-61l0-57-334 0 0 335 60 0 60 0 3 2c14 6 14 27 0 33l-3 2-71 0c-57 0-72 0-73 0z m272 0c-5-2-10-7-12-13-1-3-1-8 0-11 2-6 6-11 12-12 3-1 4-1 31-1l29 0-60-60c-57-57-60-60-61-62-1-4-2-8-1-11 2-13 16-20 28-14 1 1 22 22 61 61l59 59 0-27c0-14 0-28 1-29 0-4 2-8 5-11 10-10 27-6 31 7 1 3 1 4 1 56 0 52 0 53-1 56-1 5-5 8-11 11-1 1-3 1-56 1-43 0-54 0-56 0z"/>
<glyph glyph-name="chevron-right" unicode="&#102;" d="M389 261l-212-212c-3-3-7-5-12-5-5 0-10 2-13 5l-48 48c-3 3-5 8-5 13 0 5 2 9 5 13l152 151-152 152c-3 4-5 8-5 13 0 5 2 9 5 13l48 47c3 4 8 6 13 6 5 0 9-2 12-6l212-212c4-3 6-8 6-13 0-5-2-9-6-13z"/>
<glyph glyph-name="chevron-left" unicode="&#103;" d="M408 426l-152-152 152-151c3-4 5-8 5-13 0-5-2-10-5-13l-48-48c-3-3-8-5-13-5-5 0-9 2-12 5l-212 212c-4 4-6 8-6 13 0 5 2 10 6 13l212 212c3 4 7 6 12 6 5 0 10-2 13-6l48-47c3-4 5-8 5-13 0-5-2-9-5-13z"/>
<glyph glyph-name="caret-up" unicode="&#104;" d="M402 165c0-5-2-10-5-13-4-4-8-6-13-6l-256 0c-5 0-9 2-13 6-3 3-5 8-5 13 0 5 2 9 5 12l128 128c4 4 8 6 13 6 5 0 9-2 13-6l128-128c3-3 5-7 5-12z"/>
<glyph glyph-name="caret-down" unicode="&#105;" d="M402 311c0-5-2-9-5-13l-128-128c-4-4-8-5-13-5-5 0-9 1-13 5l-128 128c-3 4-5 8-5 13 0 5 2 9 5 13 4 3 8 5 13 5l256 0c5 0 9-2 13-5 3-4 5-8 5-13z"/>
<glyph glyph-name="minus" unicode="&#107;" d="M389 282c10 0 15-9 15-26 0-17-5-26-15-26 0 0-266 0-266 0-10 0-15 9-15 26 0 17 5 26 15 26 0 0 266 0 266 0"/>
<glyph glyph-name="plus" unicode="&#106;" d="M389 282c10 0 15-9 15-26 0-17-5-26-15-26 0 0-107 0-107 0 0 0 0-107 0-107 0-10-9-15-26-15-17 0-26 5-26 15 0 0 0 107 0 107 0 0-107 0-107 0-10 0-15 9-15 26 0 17 5 26 15 26 0 0 107 0 107 0 0 0 0 107 0 107 0 10 9 15 26 15 17 0 26-5 26-15 0 0 0-107 0-107 0 0 107 0 107 0"/>
<glyph glyph-name="preservation" unicode="&#108;" d="M254 43c-31 16-77 54-100 81-41 49-64 187-57 216 7 23 75 74 94 86 61 39 64 41 123 2l51-39c55-44 50-47 39-128-15-103-60-170-150-218z m-165 394c0-35-3-45-20-65-14-15-29-30-50-36 0-32 17-82 25-114 5-22 9-33 16-53 13-40 72-88 104-114 79-65 98-68 176-3 101 84 98 84 121 168 8 30 27 87 27 116-45 12-69 54-69 101-49 12-129 51-165 75-35-23-119-64-166-75z m42-112c0-59 13-85 16-122 20 22 11 32 32 48-62 92 91 146 91 32 32 7 83 39 91 69-40 11-82 114-183 23-24-22-47-34-47-50z m192-58c52-98-96-135-96-27-35-3-58-66-58-69 0-18 69-75 85-86 23 16 75 63 91 85 20 30 32 94 32 145-16-18-34-35-54-48z m-133 21l9-12c12-11 6-9 34-9 21 40 11 33-11 53-35-17-15 3-32-32z m64-64c19-22 9-21 42-21 21 39 11 35-1 46l-6 5c-1 0-2 1-3 2-35-17-15 3-32-32z"/>
<glyph glyph-name="nihility" unicode="&#109;" d="M261 162c-83 0-75 167-5 167 81 0 74-167 5-167z m-122 91c0-59 18-110 58-140 49-36 37-99 64-119 6 25 14 44 23 68 22 58 9 23 48 64l29 43c31 71 16 163-42 208-21 17-51 104-58 135-23-17-31-105-58-130-34-32-64-63-64-129z m254 46c67-45 56-192-37-247l-37-19c-10-6-5-3-12-9 73 0 135 47 157 108 31 87 12 194-56 212-3-14-9-33-15-45z m-360-10c0-62 22-125 71-138 3 15 9 34 15 46-65 44-47 168-2 215 35 35 71 44 88 59-56 0-90-20-123-54-25-26-49-80-49-129z m177-265c-5 23-13 22-15 46-104 2-166 139-183 158 3-105 127-198 198-204z m107 402c43-4 87-33 111-57 39-40 53-79 72-101-4 47-37 110-65 133-37 29-81 58-133 70 5-22 13-21 15-45z"/>
<glyph glyph-name="hunt" unicode="&#110;" d="M83 467c44-22 87-47 128-74-16-11-21-26-17-45 14-28 34-52 60-71 25 19 45 43 59 71 4 19-1 34-17 45 41 27 83 51 126 74 3-6 3-13 0-19-14-39-26-78-36-119-47 8-80-11-99-56-22-7-44-7-67 0-13 25-32 45-56 59-15 2-29 1-43-3-13 46-25 92-38 138z m-47-109c16 1 31 0 47-5 3-25 14-47 33-64 44 5 78-9 104-42 36-13 64-6 86 23 26 14 55 20 85 19 19 17 30 39 33 64 16 5 32 6 48 5-4-42-23-76-57-102-16-2-32-3-48-5-32-10-41-30-28-61-24-27-40-58-50-93-13-15-24-31-35-47-32 36-55 77-69 123-6 5-12 11-17 17 13 31 4 51-28 61-16 2-32 3-48 5-34 26-53 60-56 102z m71-190c19 0 38 0 57 0 0-19 0-38-3-57-18-21-37-42-57-61-2 22-3 44-2 66-21-1-41 0-62 3 23 15 45 32 67 49z m237 0c19 1 38 0 57-2 22-16 44-32 66-47-21-3-41-4-62-3 1-22 0-44-2-66-20 19-39 40-57 61-2 19-3 38-2 57z"/>
<glyph glyph-name="harmony" unicode="&#111;" d="M197 467c70-4 130-31 182-81 19-26 26-54 22-85 1-42 19-76 52-102-11-8-22-8-33 0-34 17-46 43-36 78-21 52-57 65-107 41-7-7-14-15-21-22-3 3-6 7-9 10 5 15 11 31 18 47 5 24 0 46-14 67-16 18-34 34-54 47z m-14-57c5 0 9-3 11-9 6-27 2-51-11-74-49-18-64-52-46-102 16-19 36-32 60-38-2-3-3-6-5-9-48 1-82-19-102-62-6-20-12-41-17-61-21 56-28 114-21 175 5 16 11 32 19 47 28 24 56 46 85 67 16 19 25 41 27 66z m28-52c7-18 12-37 14-57 19-17 23-38 12-62-24-25-47-25-71 0-12 33-3 59 28 76 8 14 14 28 17 43z m95-57c14-1 28-6 40-14 7-25 17-48 29-71 4-6 9-10 16-12-20-1-38 4-54 16-47-13-68 5-62 53 7 14 17 23 31 28z m-62-95c45-6 58-29 40-71-8-10-19-15-33-14-26 9-52 11-78 5-5 2-6 5-2 9 11 9 23 17 35 24 4 23 17 39 38 47z m62-14c7 6 15 6 23 0 23-46 59-63 110-50 17 7 34 12 52 14-42-49-92-85-152-109-22-3-44-3-66 0-24 13-47 24-72 34-27 2-53 2-80 0 15 21 37 33 64 35 14-13 31-23 50-31 64-6 92 24 83 88-3 7-7 14-12 19z"/>
<glyph glyph-name="erudition" unicode="&#112;" d="M249 491c4 0 7-1 9-5 10-22 19-44 29-66 43-26 60-64 50-114-1 18-8 33-22 45-48 25-93 21-135-12-4-9-8-18-9-28-10 49 8 85 52 109 9 23 18 47 26 71z m-157-43c20-1 37-9 50-24 7-36 9-72 7-109-32-3-63-9-94-19-6 35-7 70-3 105 3 25 16 41 40 47z m266 0c11-19 27-26 50-24 21-3 37 5 47 24 2-47 3-95 2-142-33 6-66 12-99 19 0 41 0 82 0 123z m-85-95c11-21 28-36 52-45 6-6 11-13 14-21 49-11 97-20 147-26-49-11-98-21-147-31-14-20-33-36-55-47-3-7-6-13-9-19-12 25-9 47 9 66 13 27 8 51-14 71-3 18-2 35 3 52z m-43-5c14-22 12-42-7-61-13-28-8-51 14-71 4-18 2-36-5-52-10 22-26 37-49 45-7 5-12 13-15 21-48 11-97 20-147 26 49 11 98 21 147 31 11 19 27 32 48 40 6 6 11 13 14 21z m218-128c3-33 6-67 9-101-3-30-20-46-49-50-17 3-32 11-43 23-7 36-9 73-7 109 31 3 61 10 90 19z m-398-9c33-6 66-13 99-19 1-41 0-82-2-123-10 19-26 27-47 23-22 4-38-4-48-23-2 47-3 95-2 142z m118 0c11-43 39-64 86-62 28-1 53 9 73 29 5 9 8 18 10 28 9-49-9-86-53-109-8-25-18-48-30-71-13 23-24 47-34 71-42 26-60 64-52 114z"/>
<glyph glyph-name="destruction" unicode="&#113;" d="M213 372c36-24 35-28 34-84 0-40 0-79 0-118-16 7-37 12-56 16 0 58 22 126 22 186z m-28-23c0-65-9-141-33-191 46 0 83-23 96-24 19-2 64 24 100 24-5 59-28 43-28 191 0 63 27 112 39 163l-28 0c-5-12-8-31-11-45l-39 0 0 45-56 0 0-45-45 0c0 42 2 45-34 45 3-37 40-112 40-163z m-95-62c0-71-65-66-81-99-9-18-9-47-9-69 0-67 50-90 118-90 28 119 196-5 230-28-16 72-127 133-213 135-13-55-68-47-73 11 111 0 121 161 37 185-60 17-9-19-9-45z m258-44c0-105 56-29 97-89 37-56-74-100-74-52 0 20 16 18 28 34-43 0-95-9-113-34 34-9 78-63 85-67 6 16-4 11 28 11 5-24 5-18-6-39 43 3 123 45 123 101 0 44-28 18-28 123-43-1-33-13-89 0-25 51 6 73 16 118-41-9-67-55-67-106z m-247-247l208 0c-25 21-124 39-152 39-6-24-12-17-38-29l-18-10z"/>
<glyph glyph-name="abundance" unicode="&#114;" d="M201 467c5 1 8-1 10-5-17-27-32-55-45-85-16-13-34-20-55-19-4 37 9 66 38 88 18 8 35 15 52 21z m95 0c32-4 59-17 83-38 14-22 19-45 17-71-21-1-39 6-55 19-13 31-28 61-45 90z m-213-47c8-57 18-114 28-171-40 5-62 28-66 69 7 36 19 70 38 102z m337 0c22-30 37-64 42-102-3-41-26-64-66-69-1 38 6 74 21 109 3 20 3 41 3 62z m-261-62c9-43-3-79-36-109 3 27 0 54-12 80 19 5 35 15 48 29z m185 0c15-13 32-23 52-29-11-26-15-53-12-80-31 29-45 65-40 109z m-152-199c0-7 3-12 9-14 0-4 2-5 5-5-1-9-6-16-14-19-105-1-156 51-152 156 8-17 20-32 33-45 21-7 42-15 62-23 20-16 39-33 57-50z m128-38c-6 3-13 7-19 12 4 3 5 7 5 12 33 43 75 72 128 87 14 13 25 28 33 45 6-72-24-123-90-154-19-2-38-3-57-2z m-114 19c-3 0-5 1-5 5 1 7-2 12-9 14-12 30-31 56-57 78 20 4 33 16 38 36 23-33 37-68 43-107-1-10-4-19-10-26z m100 5c-3-1-6-3-7-5-9 20-9 41 0 61 9 26 21 49 35 72 4-6 6-13 7-19 10-5 19-11 26-19-26-27-46-57-61-90z m-114-24c13-7 20-2 21 14 26-30 58-46 98-50 36-3 72-2 109 3-1-16-8-27-22-33-78-15-146 4-204 56-2 3-3 6-2 10z m128 0c-15-19-32-22-52-10 9 6 17 12 24 19 7-7 17-10 28-9z m-242-33c43-19 85-19 128 0 8-7 16-15 24-22-47-18-94-20-142-7-6 9-9 18-10 29z"/>
<glyph glyph-name="rotate-phone" unicode="&#115;" d="M152 360c0-6-1-12-1-17-2-16-7-18-1-37 3-11 3-106 2-170l10 10c-1 71-1 175-1 195l-1 11z m210-254l0 175c0 14 2 26 2 38-1 14-1 29-1 43l-10-9c0-5 0-9 0-14 0-29 0-56 0-86 0-23 2-95 2-139z m-273-33c-1 0-2 0-4 0 0-1-1-3-1-5z m63 63c-1-25-1-46-1-55 0-50 41-34 94-37 27-1 51 0 75 0 42 0 42 15 42 50l0 12-7 8c0-16-1-29-2-34-8-2-173-3-189-1-1 3-2 31-2 67z m-35-79l3 7c0 1 0 2 1 2l1 4c-10 1-22 3-33 3l-5-5c-1-10 2-26 3-33 1 0 2 1 2 1-3-6 2 2 11 4 19-15 67-66 107-23-41-20-59 0-90 40z m226 408c-17 6-129 2-149 2-40 0-43-8-43-49 0-17 1-39 1-58l8-8c0 25 0 50 1 75 10 4 78 2 95 2 18 0 83 3 96-1l1-45c0-11 0-20 0-30l10 9c-1 12-1 22-1 32 0 32 6 62-19 71z m-34 34c39 4 43 14 87-45-1-2-4-7-4-12 11 0 22-3 36-3 1 6 0 30-4 39-16-7-7-10-27 7-23 20-55 42-88 14z"/>
<glyph glyph-name="wind" unicode="&#116;" d="M402 504c8-29 79-121 12-216l-78-65c-50-43-92 3-40 17-1 54-48 64-106 61-139-6-194-333 8-197 6-23 5-13 14-32 44-103 125-88 181-4 61 91 125 39 107 247l-8-22c-3-13-3-16-7-30-20-66-44-106-121-106 0-74-32-99-105-99-21 31-31 28-31 84-40 0-44 0-75 7 0 59 33 82 98 83-2-4-17-28-17-29-27-69 131-52 207 43 70 86 42 205-39 258z m-393-279c0-24 2-48 15-68 26 110 98 236 209 186l39-14c56-16 47-56 39-89 28 7 95 76 45 127-27 27-35 21-83 24-65 3-16 30-98 30-70 0-166-128-166-196z m393 279l0 8-9-6z"/>
<glyph glyph-name="quantum" unicode="&#117;" d="M243 369l0-35c-14-2-23-4-35-11-74-36-52-115 23-138 13-4 9-3 10-19l1-30 2-61 1-75c11 5 11 7 14 19 5 16 3 24 11 38 35 90 203 98 151 239-8 28-33 53-54 69-16 11-64 33-85 38l0-47c1-1 2 0 2-1 8-4 17-8 25-11 48-24 62-49 61-96-8-66-90-81-95-103-13 6-1-3-5 7-3 7-1 23 1 31 86 19 111 102 32 142-8 4-29 6-32 13-3 9-3 150-4 174-29-8 0-73-76-117-34-20-89-43-102-97-15-42-2-85 23-119 28-39 77-52 118-72l0 50c-12 8-20 6-35 17-32 18-50 51-48 88 2 63 56 74 96 107z m29-173l1 122c70-9 86-91-1-122z m-31 123l-1-42 0-80c-12 1-20 4-30 10-51 32-36 103 31 112z"/>
<glyph glyph-name="fire" unicode="&#118;" d="M106 273c53 0 78-7 98 31 27 51 36 107 100 65-9-33-20-25-55-55 56-5 88-22 89-82-11-6 13-7-20 0 0-32-2-31-7-55-37-3-52-18-75-34 13 59 104 56 54 150-13-9-30-41-41-41-33 0-18 14-61 14-36 0-1-22-103-75 26-112 48-89 130-144-4 52-48 50-48 103 0 53 31 81 82 82-17-26-66-63-27-144 26 7 14 8 34 21 52 32 82-8 82 82l14 0c3-16 5-16 7-34 124 66 42 182-41 184l11 10c8 10 5 3 9 18-20 13-20 14-48 20 0 26 1 55 5 70 5 19 3 15 12 29 19 28 5-9 17 24-164-38-118-157-201-222-19-15-7 8-17-17z m136-273c30 19 16 25 61 35 25 5 52 8 74 22 51 33 50 63 50 141-28-33-41-81-94-97-13-4-27-4-41-8l-30-18c-25-22-20-32-20-75z"/>
<glyph glyph-name="ice" unicode="&#119;" d="M229 242c21-12 28-85-14-97 5-21 9-20 14-41-15 10-21 16-42 21 5-23 54-114 69-125 20 14 24 35 37 60 13 24 26 36 32 65-21-5-26-11-41-21 5 21 9 20 14 41-23 6-26 13-29 42-2 33-3 43 15 55-1 25-43 110 14 125-5 21-9 20-14 41 15-10 20-16 41-21-5 23-53 114-69 125-15-11-65-108-69-125 21 5 27 11 42 21-5-21-9-20-14-41 25-7 29-21 28-56-1-53-13-22-14-69z m55 0c0-53 1-61 21-76 18 13 20 17 20 48 22-14 27-20 28-55l35 0c-2-1-5 0-5-2-1-2-4-1-5-2-2 0-8-3-10-4l-15-20c28 0 105-13 111-6 9 9-34 70-42 103l-20-34-8 27c-36-8-18-8-55 0 2 1 4 4 5 3l15 5c20 7 40 11 56 34l-76 35c37 8 19 8 56 0l27-7 49 103c-50 0-70-7-118-7 6-21 15-19 25-23 1-1 4-2 5-2 1-1 3-1 5-2l-35 0c-1-35-6-41-28-56 0 32-2 35-20 49-20-15-21-23-21-76l27 8c-14-29-14-22 1-50l-28 7z m-55 0l-28-8c14 29 14 22 0 50l27-8c1 53 0 62-20 77-18-14-20-17-21-49-52 35 1 55-55 56 11 8 22 6 27 27-48 0-67 7-117 7l62-103c0 5 0 15 1 20 3 13 1 7 6 14l8-27c35 8 18 8 54 0l-14-7c-2 0-4-1-5-2-8-3-9-3-20-8-14-6-25-12-37-18 13-18 41-32 69-35-18-24-19-13-48-7l-28 7-48-104c50 1 69 7 117 7-5 22-12 19-29 26-1 1-4 1-5 2l34 0c1 35 6 41 28 55 1-31 3-35 21-48 20 15 21 23 21 76z"/>
<glyph glyph-name="imaginary" unicode="&#120;" d="M298 242c11-9 23-8 39-9-3-6-3-4-7-11 14-11 5-13 30-13 39 0 110-8 123 14-14 18-80 8-103 16 17 2 50 0 78 3z m-240 0c28-3 59-1 75-3-24-8-90 1-103-16 14-21 81-14 121-14 28 0 16 2 32 13-4 8-4 5-8 11 18 0 27-1 39 9z m174-172c-37-66-80-43-79-68 19-4 80-1 104-1 18 0 94-4 104 4-4 17-57 11-81 66l-39 1c-1 0-4 0-5 0-5-1 1 2-4-2z m2 13c7 5 2-1 4 8 0 1 1 7 1 8 0 7-1 13-1 19 0 11 0 23 0 34l38 0 0 17c5-4 2-74 2-84 0 21-1 98 1 117 3 22 8 15 13 27-1 2 0 1-3 3-2 0 1 0-5 1-12 1-21-9-26-14-14 5-13 17-38 12 3-13 10-6 13-27 3-21 2-98 1-121z m0 0l-2-13c5 4-1 1 4 2 1 0 4 0 5 0l39-1-2 14c0 10 3 80-2 84l0-17-38 0c0-11 0-23 0-34 0-6 1-12 1-19 0-1-1-7-1-8-2-9 3-3-4-8z m142 45c-4 5-7 18-10 25-5 10-9 17-16 23-8 8-37 23-50 26 4-15 16-39 26-48 8-7 39-26 50-26z m-239 0c10 0 40 18 48 25 12 10 22 32 28 49-12-3-41-17-50-25-18-16-16-31-26-49z m279-41c-5 35-2 21-28 31 0-5 1-9 1-13 1-10-1-11 27-18z m-315 24l-4-24 19 7c1 0 1 0 2 0 6 4 5 8 7 23z m144 282c-9 16-7 63-19 75-27-10-12-54-9-69 2-7 5-18 4-24l-1-3c-4 16-10 43-17 56-2-1-6 0-8-15-1-10 19-76 23-91 4-15 5-25 16-30 3 3 1 1 4 5l3 6c0 0 0-1 0-2 0 0 1-1 1-1l2-11c0-11 0-21 6-32 3-6 3-6 9-9l0 263c-28-9-4-93-14-118z m53-145c-1-1-2-3-3-4 1-1 2-2 3-2l160 0c12 1 23 3 32 6z m-161 44c-12-11-34 24-53 2 2-15 14-13 25-21-18 2-37 6-55 2-13-3-6-5-22-7-8-1-18-2-24-7 5-13 26-17 50-19l156 0c1 0 2 1 3 2-6 16-34 13-39 27 7 3 12-3 24 3-4 13-42 32-59 40-27 14-38 23-76 24 1-26 53-32 70-46z m70 12c-4 18-16 40-25 51-6 6-35 28-45 32 8-43 32-65 70-83z m52-56c22 11 9 41 14 68 2-14 2-29 14-32 9 10 15 70 17 87 3 20 17 81-9 83-15-11-7-57-15-75-5 8 5 54 1 83-1 5-1 8-4 11-3 4-1 1-7 3-1 0-1 0-2 0 0 16-1 24-6 36-1 0-2 0-3-1z m51 26c12-7 17 0 25-3-6-13-29-12-37-23l192 0c7 3 12 7 14 13-9 8-25 5-34 9-28 12-29 6-66 3 9 7 21 6 25 19-4 9-12 12-24 7-9-4-19-11-30-8 10 14 66 17 71 47-41-1-48-9-77-24-16-8-56-27-59-40z m-4 30c12 6 39 22 45 30 10 12 20 33 24 53-34-18-61-43-69-83z"/>
<glyph glyph-name="lightning" unicode="&#121;" d="M163 318c10 43 44 71 55 118-35-24-54-74-89-98-10-6-5-2-13-7-34-20-29-24-71-33 30-44 30-8 56-118 17 12 15 15 25 37l23 39c8-34 26-39 24-72-1-14-3-38-9-47-8-11-14-10-31-17-1-1-3-1-5-2 22-6 19-10 39-24 16-11 23-14 36-26 22-21 36-53 57-68 21 16 5 8 24 25 33 30 63 24 86 58-15 4-16 6-34 7 16 35 2 80 34 104 3-29 20-53 42-69 10 43 21 86 21 138 15 10 23 13 34 28-10 14-33 25-49 34-43 24-20 3-41 41-5 9-74 85-83 91 7-28 22-43 37-67 27-43 16-29 12-79 20-4 21-6 48-6 4-17 13-35 12-48-3-23-12-17-19-42-24 35-6 41-34 62-3-36-20-55-21-97-87 58-31 78-14 152-36-8-69-57-54 47 6 39 3 94 12 133-16-12-17-26-24-51-7-23-11-43-16-61-8-35-28-95-29-130 18 5 25 12 42 21 0-34-3-47-14-69 28-19 45-29 25-66-27-46-38-24-25-80-33 25-24 71-7 104-89 60-4 162-62 138z m131 139l0 7-8-6z m-76-21l7 0-6 8z"/>
<glyph glyph-name="physical" unicode="&#122;" d="M199 278c7 5-1 4 8-3l6-4c18-16 17-23 30-20 5 0 4 1 12 1 0 0 0-1 1-2l7-9c10 6-1 0 5 5 0 1 1 1 1 2 0 0 1 1 1 1l10 2c10 2-2 1 9 3l-30 31c-11 10-20 16-32 28-18 19 8 7-20 39-19 22-12 21-6 43-27 44-29 6-58-8-9 9-36 38-45 43-10-4-16-11-22-19 4-13 33-33 40-47-8-9-25-21-32-31 4-9 13-19 20-23 7 3 14 20 46-6 19-16 4-6 26-10 11-3 11-10 23-16z m168 106c-16 8-25 26-43 29-4-5-11-13-15-21 6-22 15-17-14-51-12-14-1-14-9-27-3-5-14-10-19-20 7-8 25-25 35-30 8 7 13 14 21 21 15 13 16-1 31 11 48 38 39 11 52 11 6 3 16 14 19 23-9 14-23 19-32 31l41 44c-3 8-9 13-14 17-11 7-14 3-21-4-11-12-21-23-32-34z m-78-130c-11-2 1-1-9-3l-10-2c0 0-1-1-1-1 0-1-1-1-1-1-6-6 5 0-5-6l-7 9c0 1-1 2-1 2-8 0-7-1-12-1-13-3-12 4-30 20l-6 4c-9 7-1 8-8 3 4-9 86-86 93-93 17-16 30-30 47-46 11-10 12-15 29-19 11-2 29-8 39-7-2 11-8 38-15 47-5 5-9 8-16 15-6 6-11 11-18 16l-69 63z m-187-145c7 0 42 8 48 10 7 3 89 82 96 91-3 6-28 30-36 33-11-8-20-19-31-28-11-9-21-20-32-30-40-36-32-28-45-76z m268 185c11-13 21-11 24-30-26 0-56 5-61-7 30-5 34-2 62-3-6-20-26-30-36-44 3-8 10-14 18-19 14 4 42 35 49 48 23 0 63-2 82 2 24 52-47 31-76 35-11 3-18 23-39 33-8-4-18-9-23-15z m-284-18c-34 0-49 1-82-2-17-43 20-35 69-35 14 0 11 3 19-7 8-11 31-35 41-41 6 2 17 12 21 19l-9 10c-6 5-6 4-11 10-7 8-13 13-16 25 12-1 56-5 61 5-6 7-50 4-61 4 3 16 15 20 25 30l-10 8c-5 3-8 5-14 7-11-6-28-23-33-33z m165-163c-8 2-32 28-41 35-7-3-24-17-28-24 4-11 43-41 56-53 5-5 13-14 19-18l37 35c8 7 34 26 37 36-3 6-21 21-27 25-10-7-34-35-43-36l-3 60c0 0 0 1-1 2-7-5-6 1-5-30 0-10 1-22-1-32z m-77-3c-8-2-12-6-18-9 7-15 83-85 101-94 22 15 93 76 101 95l-17 9c-9-6-60-65-82-69-21-3-73 57-85 68z m27 298c3-7 13-20 20-25 14 5 16 19 30 24 2-19-4-49 3-64 11 4 7 11 7 26 0 13 0 25 0 38 14-7 19-17 30-24 8 6 17 16 22 27l-56 49c-10-3-9-5-16-12-8-7-36-30-40-39z m-20 26c5-7 8-10 17-14 8 13 41 49 59 54 16-6 20-14 31-24 12-11 19-21 29-29 8 3 10 6 15 13-4 8-64 67-75 74-10-5-69-63-76-74z"/>
<glyph glyph-name="time" unicode="&#65;" d="M195 493c-150-39-227-207-157-345 60-121 205-169 326-109 120 59 169 206 109 326-31 64-89 110-159 128-33 9-85 8-119 0z m120-46c33-10 60-27 85-53 37-39 55-83 55-137 0-57-18-99-59-141-42-41-84-59-141-59-57 0-99 18-140 59-21 21-28 31-39 52-15 33-20 53-20 86 0 35 5 59 20 91 11 22 18 32 39 52 56 55 126 73 200 50z m-71-26c-9-5-11-22-10-91 0-40 1-75 2-80 2-6 16-15 64-43 33-19 63-35 66-35 9 0 22 12 22 20 0 11-6 16-61 47l-50 29 0 68c0 68-1 79-10 85-5 3-19 3-23 0z"/>
<glyph glyph-name="search" unicode="&#66;" d="M450 117c10-12 11-22 3-32 0 0-24-24-24-24-12-10-24-10-35 0 0 0-97 98-97 98-25-15-52-22-80-22-44 0-82 16-114 49-33 32-49 70-49 114 0 44 16 81 46 112 31 31 68 47 112 47 44 0 82-16 115-49 32-32 49-70 49-114 0-30-8-58-24-83 0 0 98-96 98-96m-348 183c0-30 12-57 35-80 23-23 50-35 80-35 30 0 56 11 77 33 22 21 33 47 33 78 0 30-12 56-35 79-23 23-50 35-80 35-30 0-56-11-77-33-22-21-33-47-33-77"/>
<glyph glyph-name="bulb" unicode="&#68;" d="M256 512c-97 0-176-79-176-176 0-64 59-133 80-193 33-89 29-143 96-143 68 0 63 53 96 143 21 60 80 129 80 193 0 97-79 176-176 176z m41-435l-79-10c-3 8-6 18-9 31 0 0-1 0-1 0l99 12c-1-4-2-9-4-14-2-7-4-13-6-19z m-93 36c-3 10-6 20-10 31l124 0c-2-6-4-12-5-17z m52-81c-16 0-24 2-32 20l68 8c-10-26-17-28-36-28z m75 144l-150 0c-8 17-17 35-27 51-20 38-42 76-42 109 0 79 65 144 144 144 79 0 144-65 144-144 0-32-22-71-42-109-10-17-19-34-27-51z m-75 256c-53 0-96-43-96-96 0-4 4-8 8-8 4 0 8 4 8 8 0 44 36 80 80 80 4 0 8 4 8 8 0 4-4 8-8 8z"/>
<glyph glyph-name="warp" unicode="&#67;" d="M3 508c117 11 212 2 250-68l0-38c-30 54-105 62-197 53-2-90-1-172 59-197-1-1-1-1-1-1l-38 0c-48-24-69-74-75-139 6 66 27 116 76 140-76 32-77 136-74 250z m251-69c0-1 0-1 1-2-1 1-1 1-1 2z m2-42c0 1-1 1-1 2 0-1 1-1 1-2z m-2 3c0 1 0 1-1 2 1-1 1-1 1-2z m-253-362c0 5 0 11 0 16 0-5 0-11 0-16z m0 16c0 2-1 3-1 5 0-2 1-3 1-5z m-1 5c0 1 0 3 0 4 0-1 0-3 0-4z m0 11c0 1 0 2 0 3 0-1 0-2 0-3z m0 5c0 5 0 9 0 14 0-5 0-9 0-14z m0 15c0 10 1 19 1 28 0-9-1-18-1-28z m81 341c65 6 137-5 172-66l0-94c-11 27-38 68-70 56-13-34 32-58 61-70l-99 0c-59 38-65 113-64 174z m172 9c1-2 2-4 3-6 32 76 136 77 250 73 12-117 2-212-68-250l-38 0c55 30 62 105 53 197-90 3-172 3-197-57-1 1-2 3-3 5l0 38z m0-169l0 94c1-1 1-1 1-1 37 61 114 67 175 66 6-65-4-138-66-173l-96 0c28 11 71 38 59 72-35 13-60-34-71-63 0 2-1 3-2 5z m145-15c-1 0-2-1-2-1 0 0 1 1 2 1z m-145-179c-33-75-136-75-249-72-11 119-2 215 72 252l38 0c-58-29-66-105-57-199 89-3 170-2 196 56z m0 37c1 0 1 1 1 2 0-1 0-2-1-2z m-108 143l98 0 2-1c-27-10-73-37-61-72 34-12 58 29 69 58l0-97c-37-58-112-64-172-62-6 65 4 138 67 173-1 0-2 1-3 1z m110-110c-1-1-1-1-1-2z m183 110c-2-1-3-1-5-2 76-33 77-137 74-251-120-11-216-1-253 74 0 0 0-1-1-1l0 37c1 0 1 1 1 2 29-59 105-67 200-58 2 89 2 171-58 197 1 1 2 1 4 2l38 0z m-185-112l0 97c1 2 2 3 2 4 10-27 38-73 73-61 13 35-34 60-63 71 1 1 2 1 2 1l96 0-1 0c62-37 69-114 67-175-65-6-138 4-173 67-1-1-2-3-3-4z"/>
<glyph glyph-name="share" unicode="&#69;" d="M188 256c0-2 0-3 0-5l165-82c14 12 32 19 52 19 45 0 81-36 81-81 0-45-36-81-81-81-45 0-81 36-81 81 0 2 0 3 0 5l-165 82c-14-12-32-19-52-19-45 0-81 36-81 81 0 45 36 81 81 81 20 0 38-7 52-19l165 82c0 2 0 4 0 5 0 45 36 81 81 81 45 0 81-36 81-81 0-45-36-81-81-81-20 0-38 7-52 19l-165-82c0-2 0-3 0-5z"/>
<glyph glyph-name="cog" unicode="&#70;" d="M486 309l-49 10c-2 7-5 14-8 21l27 41c9 13 7 30-4 41l-30 30c-7 7-15 10-23 10-6 0-12-2-18-6l-41-27c-7 3-14 6-21 8l-10 49c-3 15-16 26-31 26l-44 0c-15 0-28-11-31-26l-10-49c-7-2-14-5-21-8l-41 27c-6 4-12 6-18 6-8 0-16-3-23-10l-30-30c-11-11-13-28-4-41l27-41c-3-7-6-14-8-21l-49-10c-15-3-26-16-26-31l0-44c0-15 11-28 26-31l49-10c2-7 5-14 8-21l-27-41c-9-13-7-30 4-41l30-30c7-7 15-10 23-10 6 0 12 2 18 6l41 27c7-3 14-6 21-8l10-49c3-15 16-26 31-26l44 0c15 0 28 11 31 26l10 49c7 2 14 5 21 8l41-27c6-4 12-6 18-6 8 0 16 3 23 10l30 30c11 11 13 28 4 41l-27 41c3 7 6 14 8 21l49 10c15 3 26 16 26 31l0 44c0 15-11 28-26 31z m-55-85c-11-2-20-10-24-20-2-6-4-12-7-18-5-10-4-22 2-31l28-42-31-31-42 28c-5 4-11 5-17 5-5 0-10-1-14-3-6-3-12-5-18-7-10-4-18-13-20-24l-10-49-44 0-10 49c-2 11-10 20-20 24-6 2-12 4-18 7-4 2-9 3-14 3-6 0-12-1-17-5l-42-28-31 31 28 42c6 9 7 21 2 31-3 6-5 12-7 18-4 10-13 18-24 20l-49 10 0 44 49 10c11 2 20 10 24 20 2 6 4 12 7 18 5 10 4 22-2 31l-28 42 31 31 42-28c5-4 11-5 17-5 5 0 10 1 14 3 6 2 12 5 18 7 10 4 18 13 20 24l10 49 44 0 10-49c2-11 10-20 20-24 6-2 12-4 18-7 4-2 9-3 14-3 6 0 12 1 17 5l42 28 31-31-28-42c-6-9-7-21-2-31 2-6 5-12 7-18 4-10 13-18 24-20l49-10 0-44z m-175 144c-62 0-112-50-112-112 0-62 50-112 112-112 62 0 112 50 112 112 0 62-50 112-112 112z m0-210c-54 0-98 44-98 98 0 54 44 98 98 98 54 0 98-44 98-98 0-54-44-98-98-98z m0 162c-35 0-64-29-64-64 0-35 29-64 64-64 35 0 64 29 64 64 0 35-29 64-64 64z m0-112c-26 0-48 21-48 48 0 26 22 48 48 48 26 0 48-22 48-48 0-27-22-48-48-48z"/>
<glyph glyph-name="refresh" unicode="&#71;" d="M288 454c58 0 107-21 148-62 40-41 61-90 61-148 0-58-21-108-61-149-41-41-90-61-148-61-49 0-92 15-129 45 0 0 36 38 36 38 28-21 59-31 93-31 43 0 80 15 110 46 31 31 46 68 46 112 0 43-15 81-46 111-30 31-67 46-110 46-43 0-79-14-110-44-31-30-46-66-47-108 0 0 73 0 73 0 0 0-94-105-94-105 0 0-95 105-95 105 0 0 64 0 64 0 1 56 21 105 62 145 41 40 90 60 147 60"/>
<glyph glyph-name="trash" unicode="&#72;" d="M171 363c-6 0-11-5-11-11l0-267c0-6 5-10 11-10 6 0 10 4 10 10l0 267c0 6-4 11-10 11z m85 0c-6 0-11-5-11-11l0-267c0-6 5-10 11-10 6 0 11 4 11 10l0 267c0 6-5 11-11 11z m85 0c-6 0-10-5-10-11l0-267c0-6 4-10 10-10 6 0 11 4 11 10l0 267c0 6-5 11-11 11z m171 74l-139 0 0 64-234 0 0-64-139 0 0-21 75 0 0-416 362 0 0 416 75 0z m-352 43l192 0 0-43-192 0z m256-459l-320 0 0 395 320 0z"/>
<glyph glyph-name="archive" unicode="&#73;" d="M242 453c0-5-3-12-4-17-3-12-4-24-7-36l-4-17c-2-6-3-11-4-17-2-6-4-11-6-16-2-6-3-11-8-14-3-1-10-2-16-5-17-7-18-3-35-8-6-1-10-3-17-5-5-1-13-2-18-3-21-6-14-4-35-7-8-2-27-7-31-13 3-5 9-6 16-9l41-10c6-1 15-3 21-4 7-2 13-4 20-6 7-2 14-3 21-5 15-4 31-3 37-13 6-9 13-46 17-59 2-6 3-14 5-21 1-7 3-14 4-21 2-7 3-13 5-21 2-7 3-13 5-20 2-5 4-17 8-17 8 2 11 30 13 38 1 7 3 14 5 21 3 13 3 16 8 30 1 3 1 7 2 11 3 21 6 24 9 41 2 12 6 19 15 23 6 3 14 4 21 5 3 1 7 2 10 3 6 2 13 4 20 5 8 2 13 4 20 6 7 1 14 2 21 4 8 2 14 3 21 5 3 1 7 2 10 3 6 1 27 6 27 11 0 3-5 4-8 5-12 5-16 6-30 8-7 2-14 3-21 5-14 4-22 4-41 10-7 2-13 3-21 4-9 1-13 3-20 5-15 5-21 7-24 27-2 10-2 11-5 20-2 7-3 14-4 21-2 8-4 14-6 20-2 7-4 22-7 32-3 16-3 16-6 32 0 4-3 17-8 17-5 0-6-5-7-10-1-4-2-8-3-13-2-7-5-17-6-25z m-203-345c-2 0-5 0-7-1-2-1-3-1-4-3 1-4 6-6 11-9l20-10c10-5 15-6 22-9 3-2 5-3 7-4 9-4 5-1 14-7 2-1 4-2 7-3 6-2 9-3 14-6 5-3 10-4 14-7 11-5 15-5 29-12l48-24c6-2 10-3 16-5 2-1 5-2 7-3 3-1 5-2 8-3 19-6 27 3 44 7 3 1 6 2 8 3 3 1 5 2 7 3l14 7c8 4 9 4 15 6 5 2 9 5 14 7 10 5 9 5 21 10 3 1 5 2 7 3 3 2 5 3 8 4 2 1 5 2 7 3 8 4 4 3 14 7 12 4 12 6 21 9 3 2 5 2 8 4 10 5 15 6 21 9l28 14c13 8 1 10-10 12l-15 0c-3 0-3-1-7-1l-17 1c-3 0-6 0-9 0-5 0-11 0-17 0-3 0-4-1-7-1-8 0-23-2-30-4-3-1-4-2-7-2-18-7-12-1-32-11l-17-9c-12-7-12-9-20-15l-17-17c-12-11-18-21-31-7l-16 18c-9 7-8 7-19 15-7 5-14 9-22 12-2 1-4 2-6 3-7 4-12 5-19 7-9 2-17 6-27 8-20 3-36 2-57 2-3 0-6 1-8 1-7 0-17-1-25-1-4 0-6-1-8-1z m171 403c-7 0-11-3-16-5-9-4-13 0-26-8-4-3-10-4-15-7-8-5-12-6-21-13-4-3-9-6-14-8-12-7-30-28-40-38l-5-6c-2-3-3-4-5-6-6-8-13-18-18-27-1-2-2-5-3-8-3-5-6-7-8-15-1-7-2-11-5-17-4-5-5-12-5-20 0-2-2-15 9-15 14 0 29 4 39 14 6 5 8 12 12 18 1 2 1 3 2 4 5 7 8 9 12 14 6 8 18 20 27 27l10 8c7 5 12 8 19 12 9 4 20 11 30 14 12 5 18 2 26 11 8 9 9 23 12 37 2 9 10 28 1 33-6 3-14 1-18 1z m129-91c0-11 1-18 6-25 4-8 3-7 9-14 5-6 13-14 21-17l24-7c12 0 7 0 19 3 15 5 21 6 34 21 1 2 2 2 4 4 7 10 5 13 8 23 4 12 5 11 1 25-1 4-2 7-3 12-3 10-12 21-20 27-2 1-3 2-5 3-3 2-12 7-15 8-2 1-4 1-6 1-14 2-29 2-41-5-14-9-23-17-31-32-4-6-5-16-5-27z m-53 61c0-7 5-19 7-28 1-6 2-10 5-14 3-3 8-6 14-6 7 0 8 7 10 13 1 5 5 10 8 16 2 4 10 17 14 20 4 5 8 9 1 15-1 1-3 3-5 3-7 4-13 3-24 8-3 1-4 1-6 2-6 2-18 3-23-1-5-4-3-13-2-18 0-4 1-7 1-10z m171-220l2-17c0-10 0-12-3-22-4-16-2-20-5-33-1-6-5-14-7-24-2-5-9-21-6-24 3-3 12 7 13 9 9 10 9 12 14 22 2 3 3 5 5 8 1 3 2 6 3 9 2 3 3 4 5 7 2 6 2 14 4 19 5 13 7 12 7 30 0 7 2 18 0 22-6 10-32 4-32-6z m-435 1c0-7-1-8 2-15 7-21 3-26 11-40 3-7 3-9 5-15 1-5 11-21 14-27 5-7 4-11 12-18 4-3 9-7 9 0 0 10-5 16-8 24-1 3-1 5-2 8-2 9-6 13-7 24-2 17-1 25-1 41 0 4-1 6-1 10 0 7-2 12-6 15-6 4-28 9-28-7z m86-85c0-10 2-17 9-23 6-6 21-11 32-6 6 3 11 8 14 14 3 7 4 8 4 15 0 7-8 22-17 25-4 2-7 2-13 2-10 0-16-2-21-7-4-4-8-13-8-20z m366 185c-9 0-10-5-16-9-9-7-3-4-15-9-6-4-10-8-4-14 5-7 35-17 44-11 9 6 0 22-1 27-1 3-2 7-3 9 0 3-3 7-5 7z"/>
<glyph glyph-name="back" unicode="&#74;" d="M10 387c0-12 33-10 47-10l223 0c6 1 7 0 13 0 5 0 10 0 14 0 10 0 19-1 27-2 19-2 29-6 43-13 6-3 12-7 18-10 3-2 5-4 8-6 21-16 45-48 52-73 2-8 4-14 5-23 2-9 2-16 3-26 1-14-5-34-8-47-7-24-26-51-45-67-9-7-24-16-35-21-7-4-34-13-44-13l-6-1c-1 0-2 0-4 0l-26-1c-5 0-10-1-17-1l-30 0c-3 0-4 1-6 1-5 0-9 0-13 0-5 0-8 1-12 1l-90-2c-5-1-7-1-11-3-11-5-16-35 3-41 12-4 77-3 93-3 10 0 18-1 30-1 11 0 19 1 30 1 20 0 45-1 62 2 9 1 18 3 26 5 17 5 18 5 35 12 12 6 19 10 31 17l18 14c6 5 10 10 15 16 2 2 3 2 4 4 6 6 12 15 17 23 2 3 4 6 6 10l5 10c2 3 4 7 5 10 4 10 13 39 15 49 5 33-3 80-17 108-2 3-3 6-5 10-7 12-6 13-18 29-12 15-34 34-51 44-7 4-13 7-21 11-7 3-15 7-22 9-8 3-16 5-25 7-14 3-20 3-34 3-2 0-6 2-15 1-40-2-87 0-128 0-24 0-32 2-35 23-1 8 0 19 0 28-2 42-40 2-57-13l-11-10c-2-2-4-4-7-6-6-5-19-15-26-22-6-5-29-23-29-33z m-10-335c0-14 5-23 17-28 18-7 37 6 39 25 1 13-14 28-25 28l-5 0c-12 0-26-13-26-25z"/>
<glyph glyph-name="character" unicode="&#75;" d="M265 494c-14 0-16 4-35 4-16 0-20 0-36-5-20-6-16-5-29-12-3-1-7-2-10-4l-16-11c-7-6-22-20-27-28-2-3-3-6-6-8-13-14-16-28-21-34-4-5-6-12-9-17-6-10-5-11-9-20-1-3-3-6-4-9-3-5-4-14-7-20-1-4-3-7-4-10-4-11-4-23-7-34-2-11-5-22-5-32 0-4 0-7 0-10 0-3 0-5 0-9 0-8-1-33 13-18 5 4 8 14 15 14 8 0 2-20 1-23-2-9-6-16-9-24-1-2-2-4-4-7-10-16-19-30-36-38-5-3-9-6-14-8-12-7-3-11 6-13 14-4 26-5 39 0 3 1 6 2 7 5 4 9-8 8 10 26 7 7 15 13 23 19 8 6 24 6 24 19 0 6-20 35-14 60 1 3 1 4 3 5 5-1 6-14 9-20 1-3 2-5 3-7 7-14 3-10 14-27 1-2 2-4 3-6 5-8 22-27 31-30 5-2 7 0 7 5 0 5-7 12-8 19l-7 21c-1 4-2 8-2 12-1 4-1 8-2 12 0 18 4 25 10 40 2 4 4 9 7 13 5 8 4 9 11 18 3 4 5 8 9 12 3 3 5 9 12 9 7 0 9-7 10-13 3-13 7-23 11-35 1-2 3-6 4-8 1-2 3-4 4-7 5-9 3-8 10-18 8-10 7-13 18-24 5-5 8-10 16-10 4 0 5 8 4 12-2 14-1 34 2 47l7 27c1 3 10 20 12 21 7 5 13-11 16-15 2-4 5-6 9-8 10-7 17-15 26-24 11-13 12-24 10-40-2-11-4-22-7-32-2-6-5-11-7-18-1-3-2-7-2-10-2-4-8-15 0-15 4 0 16 9 19 12 3 3 12 13 15 17 8 11 9 14 16 26 3 5 4 10 5 16 3 7 7 14 10 21 0 2 1 2 1 4 1 2 1 2 3 3 2-1 1 0 1-3 2-4 2-17 2-21 0-1-1-2-1-4 0-5-3-11-4-16l-4-15c-3-10-12-22-19-30-1-3-2-4-4-6-3-4-10-11-15-14-5-4-11-10-15-15-3-5-2-10-3-16-2-10-5-22-9-30-2-2-3-4-4-6-1-3-2-5-3-7l-11-18c-3-4-6-7-9-11-1-2-2-4-4-6-2-3-8-8-8-12 0-7 15-5 20-3 2 1 6 3 7 3 9 0 3-16 24-4 3 2 3 2 5 4 5 4 10 7 15 11 6 7 11 11 15 20 1 4 4 7 6 11 6 10 8 32 6 45-1 12-6 31 21 15 6-4 13-5 19-7 14-5 25-7 40-7 7 0 14 3 20 6 5 2 14 7 8 14-2 2-13 7-17 8-2 2-6 3-8 5l-7 6c-2 2-5 4-7 6-4 5-6 5-12 13-8 11-8 14-13 26-3 6-5 14-5 22 0 2-1 2-1 4 0 4-1 22 6 22 4 0 7-6 9-9 1-1 2-2 3-3 3-5 6-13 13-13 5 0 7 9 7 14 0 21 0 28-4 49-2 9-3 28-7 36-2 3-3 6-4 10-2 4-2 8-3 11-2 5-3 6-5 10-4 6-6 13-10 19-4 6-5 13-10 19-4 5-7 12-11 17-4 6-8 12-12 17l-13 16c-3 5-16 19-20 23-7 7-14 16-23 21-6 3-10 8-18 11-7 3-12 6-20 8-7 1-20 2-27 1-5-1-9-1-13-2-2-1-9-3-12-3z m-11-369c12 0 16 0 29 4 11 4 19 8 28 16 4 5 5 10 8 15 7 11 7 15 11 22 2 2 3 4 4 7 1 3 1 6 2 9 4 17 8 29 3 47-3 9-7 13-13 19-2 3-3 4-5 6-5 5-11 13-18 6-9-8-8-57-8-69 0-12 5-25-3-27-8-3-18 8-22 10-3 3-6 4-10 6l-32 34-13 20-9 23c-2 4-3 9-4 13-4 13-14 1-17-5-3-3-4-7-6-11-5-10-6-10-10-22-5-11-2-16 1-27 2-8 2-16 7-25 6-9 4-16 10-23 10-14 9-19 27-31l15-9c4-2 20-8 25-8z m-45-49c0-7 7-19 11-25 6-7 12-12 20-15 10-5 6-7 24-7 6 0 12 4 17 7 6 3 8 6 13 11l16 20c11 14-8 18-12 26-5 10 0 24-23 12-8-4-8-3-16-3-7 0-12 3-17 5-2 1-7 3-9 3-12 1-5-14-13-21-4-4-11-5-11-13z m-119 3c0-8 1-9 10-14 6-4 8-5 16-5 7 0 10 2 12 8 1 3 1 7 1 9 2 8 3 18 5 25 2 6 4 9 6 14 5 17 12 21 8 31-1 2-7 9-9 11-8 5-24 4-32-1-10-7-15-8-23-18-6-7 0-18 15-20 8-1 6-4 3-11-1-5-3-10-6-14-2-4-6-9-6-15z m53-22c0-13 0-14 6-24 6-11 22-21 26-13 3 5 1 10 8 8 4-1 9-2 13-4 6-3 14-7 21-5 11 2 2 10-3 16-9 9-10 10-18 21-3 4-5 8-8 12-5 9-6 17-10 29-2 4-3 10-4 15-1 4-2 13-7 13-2 0-4-4-5-6-3-10-3-8-7-16-2-5-5-21-7-27-1-5-5-14-5-19z"/>
<glyph glyph-name="check" unicode="&#76;" d="M178 119c0 1-5 6-6 8-1 1-2 1-3 2l-9 11c-2 1-3 3-5 5-3 3-6 7-9 10l-70 77c-2 3-6 6-9 10-1 1-1 1-2 2l-5 5c-1 1-1 2-2 3-1 1-2 1-2 3-1 1-2 1-3 2-2 2-3 4-5 6l-7 7c-6 7-10 9-20 9-11 0-21-11-21-21 0-9 2-14 7-20 3-2 4-4 6-6 2-2 3-4 5-6 5-5 12-13 17-18l11-12c3-4 7-8 11-12l46-52c4-4 11-11 14-15 5-7 11-12 17-18l8-9c1-1 1-2 3-3 5-6 10-13 16-18 6-6 11-8 20-8 11 0 18 11 25 18l28 31c1 1 2 2 3 3l82 91c5 7 15 16 21 23 2 2 3 3 5 6 2 2 3 3 5 6 3 4 7 7 10 11 2 2 4 3 6 6 1 2 3 3 5 5l10 12c1 1 2 1 3 2l52 57c1 2 1 2 2 3 1 1 2 2 2 3 2 1 2 2 3 3l16 17c0 1 1 2 2 3 1 1 1 1 3 3 1 1 1 1 2 2l18 21c4 3 7 7 11 11 4 4 13 14 15 18 2 2 2 5 3 8l0 6c0 3-1 6-2 8-3 5-7 8-11 10-3 2-8 2-12 2-11 0-18-10-24-16-1-1-1-2-2-3l-36-39c-4-6-10-10-14-16-2-2-3-3-5-5-2-2-3-3-5-5l-42-48c-7-7-18-18-24-26-5-6-12-12-17-18l-36-40c-5-7-13-13-19-20l-19-22c-5-5-13-15-19-21 0 0-1-1-2-2l-38-42c-2-2-6-7-8-8z"/>
<glyph glyph-name="embers" unicode="&#78;" d="M356 200c0 0 0 1 0 2 0-1 0-2 0-2z m18 54c4 13 8 24 11 34 13 39 1 35-52 56l-84 35c-22 12-7 45-17 63-7 10-54 44-66 54-31 26-34 22-34-24 0-8 0-16 0-25 0-45-12-52 19-78 29-24 11-39 3-70-2-7-4-13-6-19-2-7-4-13-6-19l-2-7 31 0c6 20 12 43 28 43 13 0 30-12 40-10 16 2 17 20 21 31 13 32 48 6 74-4 21-8 24-19 17-44-1-5-3-10-5-16l28 0z m-250-51c0-12 3-15 16-21l110-44c48-18 3-49 44-80 3-3 5-4 8-7l43-34c5-4 13-11 18-14 11-5 16 0 17 10l4 75c4 34-2 39-22 55-4 4-6 4-10 10-1 2-2 3-3 6-5 14 1 22 6 38 4 15 12 37 19 57l-28 0c-2-3-3-6-4-10-3-9-4-16-11-23-8-8-15-6-26-3-7 2-19 8-26 8-14 0-14-15-19-25-12-27-18-29-47-16-7 3-14 6-21 8-38 14-34 21-25 49 2 4 3 8 4 12l-31 0c-5-15-16-48-16-51z m-98 56c0-41 15-102 40-135 4-5 8-9 12-15 28-34 54-54 94-70 22-9 22-7 42-12 28-8 17-6 48-6 6 0 9 2 13 5 0 9-11 16-18 21-9 7-15 9-28 10-17 2-45 12-60 19-34 17-73 54-88 89-2 5-4 8-6 13l-14 44c-2 11-2 44-1 56 1 10 14 50 19 60 8 16 25 37 25 55 0 60-61-38-70-86-2-12-8-38-8-48z m214 218c0-8 5-11 13-16 22-14 43-11 63-17 13-4 27-9 39-16 31-17 64-49 79-80 20-40 12-28 20-60 6-23 5-20 5-43 0-14-11-55-16-67-4-10-8-18-14-28-12-19-12-21-12-42 0-11 8-15 18-6 6 5 21 29 26 37 12 21 14 30 22 54 4 14 4 24 5 38 0 5 1 3 1 6l-1 43c0 34-17 73-35 100-22 32-35 44-66 67-29 21-82 37-122 37-4 0-25 1-25-7z"/>
<glyph glyph-name="recomended" unicode="&#79;" d="M151 8l193 0c19 0 21 7 26 20 4 12 5 26 8 38 4 17 5 10 9 37 2 11 7 23 10 37 2 12 9 19 16 29 19 27 22 31-1 60-8 10-13 15-31 15-26 0-55 0-81 0-10 0-17 5-16 16 1 9 7 14 9 24 3 12 2 11 7 25 5 17 5 27 5 44 0 11-6 26-10 34-9 20-18 26-34 35-13 8-21 8-39 7-7 0-12-3-14-9-4-16 4-90-3-109-2-6-5-10-8-16-5-15-6-16-16-30-5-7-16-15-25-19-9-4-24-7-34-12-14-7-8-27-7-45 2-21 2-30 6-52 1-6 1-13 2-20 2-14 3-28 4-42 1-7 0-14 1-21 1-8 1-14 3-21 2-14 3-25 20-25z m-151 261l0-41c0-10 3-19 5-27 4-11 4-16 7-26l13-35c3-6 14-27 17-31 7-9 37-51 48-48 2 1 2 1 2 2 1 1 1 2 1 3 0 1 0 5 0 6l-7 34c-3 9-13 21-20 34-2 3-3 5-5 8-1 3-3 6-4 9-4 6-5 13-8 20-2 7-5 13-7 19-5 18-5 85 0 104l13 39c6 12 13 22 20 34 17 27 45 51 73 67 11 7 13 6 23 11 9 4 17 6 27 8 23 5 31 11 60 10 11-1 22-1 32-3l41-12c26-8 41-27 52-5 10 20-7 25-15 29-31 16-64 23-99 25-21 2-19 1-42-1-9-1-18-3-27-4-15-2-22-6-35-11-14-4-10-3-22-9-18-9-11-5-29-17-20-13-42-32-56-50-8-10-12-17-19-27-9-14-25-48-28-64-2-9-4-17-7-25-2-8-4-17-4-26z m419 166c-4-2-5-6-7-11-4-7-19-27-25-33l-21-16c-4-3-8-5-12-7-22-15 9-17 36-45 5-6 19-26 24-34 2-4 5-11 10-8 6 3 9 15 15 23 8 12 26 31 38 38 8 5 22 11 19 18-3 8-26 16-43 34-6 6-12 13-16 21-3 5-9 25-18 20z m54-184c0-18 0-45-6-58-6-14-5-15-8-24-3-9-7-15-10-23-7-15-20-28-23-41-4-14-4-12-8-25-2-6-6-26 5-21 7 2 28 26 32 32 15 18 28 39 36 61 8 23 7 8 11 37 1 5 2 9 4 13 3 9 6 16 6 26 0 21 3 46-5 65-4 9-7 18-19 10-20-12-15-23-15-52z"/>
<glyph glyph-name="shop" unicode="&#80;" d="M122 413c0-25 0-42 0-67-1-20 1-42 0-61l0-31c0-23-2-75-5-99-1-15-4-17-4-36 0-8-1-16-1-25 0-5-1-28-2-36-1-13-6-36-5-47 1-8 3-11 11-11l284 0-139 0 0 207c-23 0-47 0-57 0-8 0-12 1-13 8-2 7-1 52-1 61 0 10-1 52 1 60 3 7 5 7 13 7l57 0 0 81c-13 0-26 0-35 0-12 0-14 1-14-16 0-12-2-16-13-17-10-1-9 11-9 20 0 14-5 13-18 13l-38 0c-4 0-7 1-9-2-2-3-3-5-3-9z m180-206c1 0 3 0 4 0-1 0-3 0-4 0z m11 1c0 0 1 0 1 0 0 0-1 0-1 0z m1 0c0 0 1 0 1 0 0 0-1 0-1 0z m1 0c0 0 0 0 0 0 0 0 0 0 0 0z m0 0c1 0 1 0 1 0 0 0 0 0-1 0z m1 0c0 0 0 0 0 0 0 0 0 0 0 0z m-55-208l139 0c6 8 4 16 4 27 0 14-5 27-7 40-2 14-2 38-2 53 0 14-3 29-4 43-4 52-4 150-4 200l0 52c0 3-2 5-3 7-3 2-4 2-9 2l-42 0c-16-1 2-32-20-33-3 0-5 0-6 1-3 0-3 1-4 3-5 7-1 19-4 27-1 2-2 2-5 2-8 0-20 0-33 0l0-81 44 0c7 0 14 0 17-4 1-2 2-4 3-7 1-5 0-4 0-9l0-99c0-8-2-14-9-16-4-1-29-1-55-1l0-207z m150 412l0-183c0-9 1-19 2-28 0-10 2-19 2-29 1-9 2-18 2-28l2-36c0-10-1-20 0-30 1-12 9-22 10-50 1-8 1-20 5-25 5 2 8-1 8 13 0 12-2 20-4 31-5 25-2 62-6 85-10 54-7 213-8 275 0 7 1 10-3 17-8 0-10-4-10-12z m-169-170c0 5 1 7 5 10 6 5 13 5 18-1 4-4 3-5 4-11 1-16 27-9 29-8 3 3 4 19 1 25-2 5-7 3-18 5-6 2-7 3-8 8 0 4 0 9 2 12 4 5 20 3 23 8 2 3 3 23 0 26-1 2-24 8-28-4-2-6-1-14-6-18-7-7-16-3-19 2-3 5-3 22-9 23-2 0-16 0-19-1-7-3-4-26-1-30 4-3 22 1 21-15-1-5-1-7-4-9-3-2-5-3-9-3-7-1-8 0-9-3-3-5-4-15-2-22 3-6 5-6 18-7 5 0 7 0 9 4 1 2 2 5 2 9z m-156 166c0-54 2-105 0-160l-4-111c-1-10-2-20-2-31 0-19-6-30-7-35l-2-43c0-10-5-22 2-27 10 8 10 51 13 67 2 8 6 67 6 73 0 9 2 26 2 35 1 20 2 43 2 63l1 87c-1 15-1 30-1 44l0 13c0 12 2 27-2 37-10 0-8-5-8-12z m108 40c0-6 0-14 2-18 14 4 6 15 11 28 1 2 2 3 3 5 1 4 2 9 4 11 2 2 3 2 4 4 7 11 13 9 19 12 4 2 4 7 17 7 7 0 14-1 19-5 8-7 14-3 22-16 1-2 1-4 2-5 3-5 5-1 8-17 2-9 0-19 6-25 8 2 8 10 9 17l0 1c0 10-4 13-7 25-2 3-7 11-10 14-2 2-2 3-3 5-1 2-2 2-5 3-2 2-3 3-4 4-3 2-7 4-10 6-1 1-22 8-24 8-5 0-9-2-13-3-4-2-7-3-12-4-3-1-11-7-14-9-2-2-3-2-5-4l-6-10c-2-4-4-5-5-10-4-10 0-2-5-11-2-3-3-10-3-13z"/>
<glyph glyph-name="lightcone" unicode="&#81;" d="M439 312c3 4 6 10 10 15 3 4 4 8 8 13 3 4 6 7 8 12 2 2 3 4 4 6l8 13c5 8 7 8 13 19 7 14 9 20-1 34-19 26-36 4-58-3-14-5-28-8-43-10l-18-2c-13-1-26-2-38-3-26-4-92-3-114-3l-48 4c-7 0-15 2-23 2l-23 2c-17 2-37 7-50 15-8 5-19 10-29 10-6 0-15-3-18-7-4-4-9-11-10-16-3-11 3-19 8-28 4-8 15-23 21-31l15-23c4-5 8-10 11-15 1-2 2-3 3-4l17 0c-5 7-9 14-14 21-2 3-4 6-7 10-2 3-4 7-6 10-5 7-9 14-14 20-4 5-7 10-11 15-3 4-7 11-7 17 0 3 2 9 3 11 5 8 15 5 20-1 3-2 5-5 7-8l39-57c2-3 4-6 6-10 2-3 4-5 7-9 2-3 3-6 5-10 3-3 5-5 7-9l1 0 127 0 0 52c0 23 4 24 19 24l14 0c10 1 18 1 28 1l27 2c7 0 46 7 58 8 7 1 15 0 15-6 0-5-5-10-9-17-3-6-6-10-10-16-5-9-7-8-10-15-2-3-3-5-5-8-2-3-4-5-5-7-2-3-3-6-5-8-4-6-5-6-8-10l22 0c3 3 5 7 7 10l22 33c2 2 2 4 3 5l19 28c7 10 18 33 31 33 4 0 8-1 10-5 6-12-3-24-9-33-3-3-4-6-7-10-2-4-4-6-7-10-2-4-4-7-6-10-3-4-5-7-7-11-4-7-9-12-14-19l-8-11z m-202-245c0-9-5-18-9-25-5-7-3-12 3-18 5-6 16-25 24-25 7 0 10 4 15 9 4 5 15 19 17 25 0 3-1 6-2 8-8 14-13 22-6 38 2 4 8 9 13 19 2 5 6 8 8 12 3 5 5 8 9 13 5 6 16 24 21 31l17 24c3 4 6 8 9 12 3 4 5 9 8 13 5 8 12 16 17 25 7 13 17 24 25 37 2 2 3 4 4 6l13 19c1 2 3 4 5 6 1 2 2 4 4 6 1 2 3 4 4 6 1 1 2 2 3 4l-19 0-6-9c-4-5-7-11-10-15-4-5-7-11-11-16-5-6-6-8-10-15-1-1-2-3-3-5-6-8-7-11-14-20-3-3-4-7-6-10l-21-30c-3-4-5-7-7-10-4-5-7-11-10-15-5-6-7-10-11-15l-20-31c-3-3-5-6-7-10l-15-19c-5-7-17-8-23-2 0 0 0 0 0 0-1 0-1 0-1 1 0 0 0 0 0 0-5 5-19 24-23 30l-7 10c-1 2-2 3-3 5l-11 15c-2 3-4 7-6 10-3 4-5 6-7 10-6 8-15 23-21 31l-13 20c-2 3-4 8-7 10l-21 30c-2 4-5 6-7 10-7 9-13 21-20 30-3 3-5 6-7 9l-17 0c3-3 5-6 8-10l10-16c2-3 3-5 5-8 12-17 23-37 37-53 5-7 8-13 13-20l8-11c1-2 2-2 3-3 1-2 1-3 2-4l44-66c5-7 8-12 14-20 1-2 3-5 5-7 4-7 13-18 13-26z m-109 245l127 0 0-130c0-14 5-27 13-14 2 3 4 5 6 8l16 23c1 2 3 5 4 8 3 4 5 6 11 15 4 6 6 8 10 16 1 2 3 5 5 7 7 7 6 8 11 15 2 3 3 5 5 8 2 3 3 5 4 8 5 7 5 4 11 15 3 5 7 10 10 15 1 2 2 4 3 6l22 0c-4-6-8-12-12-18-2-3-4-7-6-10-7-11-15-22-22-33l-10-14c-2-4-4-6-6-10l-26-37c-2-4-3-7-5-10-8-11-16-22-23-33l-9-15c-3-3-5-6-10-6-8 0-12 9-16 15-2 3-4 6-6 9l-19 29c-5 6-9 13-13 19l-6 10c-2 3-5 5-7 9-2 3-4 6-6 9-2 4-4 6-6 10l-50 76z m86 199c-5 0-7-1-11-1-4 0-8 0-12-1l-21-3c-4 0-7 0-10-1-16-2-39-4-52-9-6-3-13-4-20-6-7-2-10-5-16-8-9-5-11-6-11-16 0-5 5-8 7-10 9-7 9-7 21-11 22-6 13-7 44-11 15-2 17-3 31-5 6-1 8-2 15-2 2 0-1-1 2-1l11 0c4 0 10-1 13-1 5-1 10 0 14-1 4 0 11 0 21-1l0 16c-3 1-5 1-7 1-3 0-6 0-9 0-7 0-30 2-38 3-14 2-23 2-37 9-6 3-17 6-17 15 0 11 13 14 20 17 9 3 20 7 29 8 5 0 12 0 17 1l17 1c3 1 6 0 9 0l21 2-5-1 0 17c-1 0-3 0-4 0l-17-1c-3 0-2 0-5 0z m26-88c19 0 45 0 53 1l47 3 37 6c18 3 21 3 38 9 14 4 21 5 32 16 7 7 6 16-1 21-17 11-20 9-37 15-16 5-23 7-41 9l-24 3c-7 1-14 3-21 3l-24 2c-5 0-8 1-13 1l-39-1c-3 0-5 1-7 1l0-17 5 1c3 0 3 0 4 0 12 0 26 1 38-1 4-1 9 0 13-1l23-2c9 0 46-10 51-13 8-5 11-18-6-25-23-10-19-7-43-11-14-2-23-3-38-3-14 0-22-2-30-2-5 0-12 1-17 1l0-16z"/>
<glyph glyph-name="more" unicode="&#82;" d="M448 258c-3-5-6-9-10-14-18-5-36-14-48-30-5 4-10 6-16 9 11 9 21 21 31 35l43 0z m-290 51c-1 0-2 0-2 0 0 0 1 0 2 0z m-3 0c0 0-1 0-1 0 0 0 1 0 1 0z m-2 0c0 0-1 0-2 0 1 0 2 0 2 0z m-2 0c-1 0-1 0-2 0 1 0 1 0 2 0z m-2 0c-1 0-1 0-2 0 1 0 1 0 2 0z m-2 0c-1 0-1 0-2 0 1 0 1 0 2 0z m-2 0c-1 0-1 0-1 0 0 0 0 0 1 0z m-2 0c0 0-1 0-2 0 1 0 2 0 2 0z m-2 0c-1 0-1 0-1 0 0 0 0 0 1 0z m-2-1c-1 0-1 0-2 0 1 0 1 0 2 0z m-2 0c0 0-1 0-1 0 0 0 1 0 1 0z m-2 0c0-1-1-1-1-1 0 0 1 0 1 1z m-2-1c0 0-1 0-1 0 0 0 1 0 1 0z m-2-1c0 0-1 0-1 0 0 0 1 0 1 0z m-2 0c0 0-1-1-1-1 0 0 1 1 1 1z m-5-2c-1-1-1-1-1-1 0 0 0 0 1 1z m-4-2c0 0-1-1-1-1 0 0 1 1 1 1z m-3-2c-1 0-1-1-2-1 1 0 1 1 2 1z m-6-4c0 0 0 0-1-1 1 1 1 1 1 1z m-34-36c-9-14-18-29-27-46 52-35 100-65 137-39-5-45 37-78 96-108 15 24 30 47 39 69 3-3 6-6 9-8-16-20-17-47-11-72-8-13-17-26-26-39-74 37-127 79-121 136-47-33-108 5-173 49 24 47 49 85 78 105l-1 0 0-47z m308 1c-1 0-1-1-2-2 1 1 1 2 2 2z m-3-3c-9-12-21-22-34-30l0 0-1 1 0 0-1 0 0 0 0 0-1 0-1 0-1 0 0 0-1 0-1 0 0 0-1 0-1 0-1 0 0 0-1 0-1 0-1 0-1 0 0 0-1 0-1 0 0 0-1 0-1 0 0 0-1 0 0 0-1 0 0 0-1 0-1 0 0 0-1 0-1-1 0 0-2 0 0 0-1 0-1 0 0 0-1 0-1 0 0 0-1 0-1 0-1 0 0-1-1 0 0 0-1 0-1 0 0 0 0 0-2 0 0 0-1 0 0-1-1 0 0 0-1 0-1 0 0 0-1 0-1 0 0 0-1-1-1 0 0 0-1 0-1 0 0 0-1 0-1-1 0 0-1 0-1 0-1 0-1-1 0 0-1 0-1 0 0 0-2-1 0 0-1 0-1 0 0-1 0-1 0 0 1-1 0-1 0 0 0-1 0-1 0 0 0-1 0-1 0 0 1-2 0 0 0-1 0-1 0 0 0-1 0-1 0 0 1-3 0-1 0 0 0-1 0 0 1-1 0-1 0 0 0-1 0-1 0 0 1-1 0-1 0-1 0-1 0 0 0-1 1-1 0 0 0-1 0-1 0 0 0-1 1-1 0 0 0-1 0-1 0 0 1-1 0-1 0 0 0-1 0 0 1-1 0-1 0-1 0-1 1-1 0 0 0-1 0-1 1-1 0-1 0 0 0-1 0 0 1-2 0 0 0-1 1 0 0-1 0 0 0-1 1-1 0 0 0-1 1-1 0-1 0 0 1-2 0 0 1-2 0 0 0-1 1-1 0 0 0-1 1-1 0 0 0-1 0 0 1-1c-6-23-19-45-31-64-41 20-79 53-77 103-44-23-91 2-126 25 7 14 15 28 25 39l88 0c-8-3-14-9-16-18 16-20 48-2 65 11-5-20-5-57 20-62 20 15 2 47-11 64 15-3 39-4 53 6 0 0-1-1-1-1l85 0z m-282 2c1 1 2 1 2 2 0-1-1-1-2-2z m3 3c0 0 1 1 1 1 0 0-1-1-1-1z m6 6c0 0 1 1 1 1 0 0-1-1-1-1z m198 4c0-1 0-1 0-2 0 1 0 1 0 2z m0-2c0-1-1-1-1-1 0 0 1 0 1 1z m-2-3c0-1 0-1 0-1 0 0 0 0 0 1z m0-1c0-1 0-1-1-1 1 0 1 0 1 1z m-1-1c0-1 0-1-1-2 1 1 1 1 1 2z m-1-2c0 0 0-1 0-1 0 0 0 1 0 1z m-1-1c0 0 0 0 0-1 0 1 0 1 0 1z m0-1c0 0-1 0-1 0 0 0 1 0 1 0z m-1 0c0-1 0-1-1-1 1 0 1 0 1 1z m-1-2c-1 0-1 0-1 0 0 0 0 0 1 0z m-1-1c-1 0-1 0-1 0 0 0 0 0 1 0z m-114 238c74-38 127-79 120-136 47 32 108-6 174-50-10-19-20-37-31-53l-43 0c8 13 15 27 23 42-51 34-100 64-137 39 5 45-36 77-95 107-34-52-64-100-38-137-32 4-58-16-81-49l0 47c18 12 37 18 59 16-33 47 5 108 49 174z m17-74c40-21 79-54 76-103 44 23 91-2 127-26-6-12-14-25-23-36l-85 0c5 4 9 9 10 15-15 20-47 2-64-11 4 20 5 57-20 63-20-16-2-47 11-65-13 3-33 4-47-2l-88 0c19 23 45 40 77 38-22 44 2 91 26 127z m104-213c32 9 70 11 93-18 2 7 6 13 10 18 0-1-1-1-1-1l0-65 0 0c-7 12-26 33-42 24-3-19 23-27 38-30-13-7-33-25-24-42 16-2 24 16 28 31l0-60c-17-20-46-27-71-30-8 32-10 69 18 92-34 13-44 51-49 81z m104 1c1 1 1 2 2 2-1 0-1-1-2-2z m3 3c2 2 4 4 6 5-2-1-4-3-6-5z m7 6c2 1 3 2 5 4-2-2-3-3-5-4z m5 4c2 1 4 2 6 3-2-1-4-2-6-3z m6 3c2 1 3 2 5 2-2 0-3-1-5-2z m8 4c1 0 2 0 3 1-1-1-2-1-3-1z m5 1c0 1 1 1 2 1l1 1 1 0 1 0 0 0 1 0 1 1 0 0 1 0 0 0 1 0 0 0 2 1 0 0 1 0 0 0 1 0 0 0c1 1 2 1 3 1l-16-5z m-17-52c0 0 1 0 1 0 0 0-1 0-1 0z m3 1c1 0 1 0 2 0-1 0-1 0-2 0z m-22 28c17 21 47 28 72 32 9-32 11-69-18-92 35-13 45-51 49-82-32-9-69-10-92 18-3-7-6-13-11-18l0 60c1 2 1 5 2 7 7-13 25-33 42-24 3 19-23 27-38 30 13 7 33 25 24 41-19 4-27-22-30-37z"/>
<glyph glyph-name="all" unicode="&#83;" d="M0 193l0-123c0-19 0-29 9-41 11-16 25-17 44-17l128 0c27 0 45 16 47 38 0 5 0 10 1 14 1 7-1 7-1 13 0 10 2 14 0 24-2 17 4 51 1 83-1 19-2 30-13 41-18 20-41 16-63 15l-95 1c-32 0-58-13-58-48z m316 313c-14-2-27 2-40-17-9-14-8-29-8-50 0-19-1-102 0-114 2-18 8-29 20-38 19-13 46-5 76-9 10-1 16-3 26-1 29 4 67 0 81 6 25 11 26 34 26 60 0 38 0 76 0 115 0 49-32 48-66 48-20 0-102 1-115 0z m-268 0c-10-2-15 0-24-3-6-3-12-8-16-13-9-13-8-30-8-49 0-39 0-77 0-115 1-19 7-30 18-38 15-11 26-8 49-8 38-1 77 0 115 0 19 0 30 7 38 18 8 11 9 29 9 48 0 17 1 40 0 57-2 35 8 77-17 95-12 9-31 8-50 8-20 0-101 1-113 0z m207-372c0-19 13-31 23-41l63-63c12-12 23-20 33-23l0 55c-9 3-16 12-25 21-2 2-3 3-5 5l-31 32c-5 7-5 12-5 20 0 10 44 53 53 60 5 4 9 7 13 9l0 56c-21-8-53-44-65-56-9-10-24-22-33-32-3-4-3-5-7-9-10-10-14-18-14-34z m127-129c0 0 1 0 1 0 0 0-1 0-1 0z m10 205c0 0-1 0-1 0 0 0 1 0 1 0z m-5 1c0 0-1 0-1 0 0 0 1 0 1 0z m-1 0c-1 0-1 0-1 0 0 0 0 0 1 0z m-3 0c-1 0-1 0-1 0 0 0 0 0 1 0z m-1 0c-1 0-1 0-1 0 0 0 0 0 1 0z m-3 0c-1 0-2-1-3-1 1 0 2 1 3 1z m-3-1c-1 0-1-1-2-1 1 0 1 1 2 1z m-2-203c15-4 29 1 47 19 5 6 10 10 16 16l15 16c11 11 22 20 33 31 7 8 25 28 25 39 0 26-1 29-24 52l-82 79c-6 4-14 9-25 7-1 0-3 0-5-1l0-56c8 4 15 4 25-4 8-6 21-21 28-28 45-44 44-40-9-94-8-8-21-23-33-23-4 0-7 0-11 2l0-55z"/>
<glyph glyph-name="stellar-jade" unicode="&#84;" d="M139 288c0-10 10-28 15-36 2-5 4-8 6-12 7-11 19-34 29-40 7-5 23-4 30-1 16 7 31 47 40 66 4 8 7 16 10 24 4 8 7 16 10 25 8 19 12 34-7 50l-55 49c-31 32-2 36 23 51l48 20c37 15 40-5 40-38 0-15 0-29 0-44 0-17-2-30 14-30 12-1 23 8 36 8l35 0c4 0 8-4 10-6-3-10-15-11-29-16-29-11-27-4-55-15-7-3-11-4-16-9-7-7-10-17-16-30-5-10-10-20-14-30l119 0c2 4 4 9 5 15l20 59c2 8 6 25 6 35 0 12-33 59-43 74-11 17-21 38-40 47-3 1-20 8-22 8-17 0-28-8-40-14l-55-25c-38-15-61-13-71-60-2-8-4-13-7-20l-16-62c-4-13-10-28-10-43z m137-54c-4-9-8-18-13-26l-14-33c-2-6-4-11-6-17-2-6-4-11-7-17-3-8-10-27-16-31-20-14-35 27-44 43l-17 30c-6 9-12 18-17 29-4 6-22 39-27 42-4 4-10 6-18 6l-52 0c-10 0-17-5-17-15l0-53c0-14 6-23 11-31 3-5 6-9 9-13 10-14 14-24 24-39l26-38c20-30 22-25 67-2 20 10 37 19 54 3l3-4c9-9 15-19 21-30 13-25 19-34 33-37l0 27c-17 2-33 32-33 48 0 0 2 7 2 7 1 3 2 3 3 6l80 97-52-64 0 112z m17 40c-5-11-10-23-15-34-1-2-1-4-2-6l0-112 52 64c9 9 22 18 35 10 6-4 9-15 9-25 0-42 6-51-18-74-12-12-58-61-67-66-1 0-9-3-9-3-1 0-2 0-2 0l0-27c10-2 24-1 48-1 25 0 30 7 50 22l72 55c4 3 6 5 10 7 3 3 7 5 11 8 12 10 18 14 18 35l0 68c0 28-23 21-56 21-41 0-29 21-22 43 2 6 3 10 5 15z"/>
<glyph glyph-name="starlight" unicode="&#85;" d="M125 448c1-41-12-62 18-85 34-25 31-24 20-61-3-9-6-15-9-23-1-5-2-8-3-13l-10-24c-7-13-22-4-36 1-13 4-35 16-47-5-2-5-22-68-22-68 0-11-1-17 12-25l52-20c23-11 33-9 44 16 3 7 4 15 7 22 10 21 23 16 45 6l26-11c8-3 18-6 26-10l0 35-37 15c-6 2-10 4-15 6-12 5-23 7-24 19 0 8 21 74 25 82 7 18 6 38 26 38 4 0 14-4 25-8l0 39c-5 7-4 16-4 33 0 20 0 28-16 42-21 17-43 32-64 50-8 6-28 24-35 3-2-8-2-31-2-41 0-6-1-8-2-13z m133-307l1 0c-1 0-1 0-1 0z m1 0c0 0 0 0 0-1z m0-1c0 0 1 0 1 0 0 0-1 0-1 0z m1 0c0 0 0-1 0-1 0 0 0 1 0 1z m0-1c1 0 1 0 1 0 0 0 0 0-1 0z m1 0c0-1 0-1 0-1 0 0 0 0 0 1z m0-1c1 0 1 0 1-1 0 1 0 1-1 1z m1-1c0 0 0 0 0 0z m0 0c0 0 1-1 1-1 0 0-1 1-1 1z m1-1c0 0 0 0 0-1 0 1 0 1 0 1z m0-1c0 0 0 0 0 0 0 0 0 0 0 0z m0 0c1 0 1-1 1-1 0 0 0 1-1 1z m1-1c0 0 0 0 0-1 0 1 0 1 0 1z m0-1c0 0 0 0 0 0 0 0 0 0 0 0z m0 0c0-1 1-1 1-1 0 0-1 0-1 1z m1-1c0 0 0-1 0-1 0 0 0 1 0 1z m0-1c0 0 0 0 0-1 0 1 0 1 0 1z m0-1c0 0 0 0 0 0 0 0 0 0 0 0z m0 0c0-1 0-1 0-1 0 0 0 0 0 1z m0-1c0-1 0-1 0-1 0 0 0 0 0 1z m0-1c0 0 0-1 0-1 0 0 0 1 0 1z m-8 237c0 1-1 1-1 1 0 0 1 0 1-1z m-9-217c9-5 17-11 17-21 0-36-6-44 16-63l66-51c15-11 36-26 36 11 0 11 1 18 1 28 0 21 1 38 1 57 0 13 1 16-4 25-4 7-8 10-14 15l-17 13c-19 18-7 30 2 60 2 7 4 12 6 18 7 21 9 44 34 35l18-7c16-5 28-12 38 5 5 10 8 21 12 32 4 12 16 41 13 51-3 12-17 14-27 19-17 7-54 25-69 15-15-9-18-56-35-56-9 0-70 24-83 31-6 2-9 5-11 9l0-39c9-4 17-7 22-9 4-2 9-4 15-6 5-2 9-4 14-7 15-7 37-11 38-26 0-9-7-27-9-34-7-19-14-44-21-64-10-31-14-25-51-10l-8 4z m-50 91c0-21 32-29 52-38 44-19 44 4 51 26 2 5 3 7 4 11 2 6 9 30 8 35-2 16-19 20-32 26-15 6-32 16-48 16-8 0-13-6-15-12-3-6-5-14-7-21l-13-43z m24 242c0-11 6-16 15-23 7-5 14-8 24-9 11-2 18-4 28-7 9-2 18-4 27-7 21-6 29-15 49-18 22-4 64-30 64-9 0 16-42 45-59 55-16 9-37 19-55 22-18 4-93 20-93-4z m-198-182c0-7-3-17-3-24 0-11-1-48 10-52 6 0 8 2 10 6 2 3 5 7 6 10 4 7 5 17 8 25 4 8 9 11 13 19 4 9 4 16 6 26 10 42 36 59 36 94 0 8 2 28-15 24-6-2-11-8-16-12-4-5-8-10-12-16-11-14-14-19-22-35l-12-30c-4-11-8-20-9-35z m372-175c0-9-2-35 17-31 7 1 20 18 26 25 10 12 26 39 31 54 12 32 7 23 15 53 14 58-10 86-24 45-10-28-13-25-23-47-8-16-7-24-20-51-5-11-15-22-19-34 0-1-3-12-3-14z m-307-20l0-1c0-16 47-45 62-52l41-16 51-7c17 0 36-3 36 15 0 9-23 25-34 28-9 2-17 4-25 7-8 2-16 3-25 6-15 4-31 16-45 16-14 0-17 0-28 3-9 3-15 7-26 7-3 0-7-3-7-6z"/>
<glyph glyph-name="menu-bar" unicode="&#86;" d="M51 393c-6 0-12-4-15-9-3-5-3-12 0-17 3-5 9-9 15-9l410 0c6 0 12 4 15 9 3 5 3 12 0 17-3 5-9 9-15 9z m0-120c-6 0-12-3-15-8-3-6-3-12 0-18 3-5 9-8 15-8l410 0c6 0 12 3 15 8 3 6 3 12 0 18-3 5-9 8-15 8z m0-119c-6 0-12-4-15-9-3-5-3-12 0-17 3-5 9-9 15-9l410 0c6 0 12 4 15 9 3 5 3 12 0 17-3 5-9 9-15 9z"/>
<glyph glyph-name="log" unicode="&#87;" d="M201 221l0 0c-3 0-5 1-7 3-5 4-10 9-15 14-6 6-14 11-22 15-10 5-19 6-29 9-4 1-10 2-15 4-4 2-7 6-7 12l0 89c0 6 3 11 6 14 6 5 8 4 14 11 1 1 1 1 2 2 4 5 3 10 4 16 1 4 0 5 0 9 0 14-10 21-20 26-11 5-17 4-28-1-7-4-14-9-17-17-2-6-1-10-1-16 0-21 16-25 21-31 3-3 4-9 4-13l0-88c0-22-13-17-28-25-7-3-11-6-17-10l-8-6c-10-7-17-18-24-29l-4-9c-3-7-6-11-7-20-1-6-3-16-3-24 0-2 1-3 1-6 0-15 5-35 13-47 5-9 10-17 17-24 5-5 9-8 15-12 12-8 24-14 38-17 22-4 38-3 59 3 12 4 26 12 35 20 7 6 6 5 11 10 3 4 6 8 8 12 5 5 8 11 11 17l9 31c5 27-5 32-5 45l0 5c0 6 19 17 28 23 6 5 14 9 21 14 2 1 3 2 5 3l20 14c2 1 3 2 5 4 4 2 7 4 10 6 4 3 7 5 11 7 7 4 13 10 20 14 2 1 4 2 6 3 8 5 28 23 38 23 1 0 4-1 6-2 1-1 1-1 2-2 8-5 13-8 20-10 1 0 3-1 4-1 1 0 3 0 4-1 3 0 7-1 10-1l0 34c0 0-1 0-2 0-8 1-11 3-17 7-14 10-19 22-19 40 0 6 1 15 3 19 4 9 15 19 23 23 4 2 8 3 12 4l0 34c-9-1-19-4-27-8-14-7-33-24-39-38-3-8-6-22-6-33 0-13 2-24 5-33l1-2c2-14-12-19-22-26-5-4-10-6-15-10l-14-10c-6-4-7-4-15-9l-29-20c-10-6-19-13-29-19-4-3-25-19-31-19z m262 72c1 0 2 1 2 1 0 0-1-1-2-1z m-41-6c15-1 30 1 43 7 7 3 20 12 25 18 11 14 19 26 19 44 0 5 1 6 1 10 1 5-1 6-1 14 0 12-4 21-8 28-5 7-10 14-17 20-7 6-13 10-22 14-12 5-26 7-40 6l0-34c9 1 19 0 27-3 5-2 9-5 13-8 3-4 7-8 9-12 3-4 5-10 5-16 0-5 1-5 1-9 0-2-1-2-1-5 0-11-4-18-11-26-3-3-10-8-14-10-9-5-19-5-29-4l0-34z m-259 0c5 0 11 11 14 15 20 27 57 38 88 25 2-1 3-2 5-3 13-5 16-13 29-4 5 3 13 8 17 12 10 9 1 17 1 31l0 9c0 15 8 21-10 30-35 17-104 25-137 0-10-7-5-9-15-22-1-3-3-5-5-7-8-11-21-17-23-26-1-8-2-40 1-46 2-9 16-11 24-13 3 0 7-1 11-1z m27-248c0-6 22-9 29-10 55-10 139 25 177 63 1 2 1 2 3 4 6 5 12 11 16 18 6 9 11 15 17 25 5 8 11 18 15 27 10 25 18 55 18 82 0 7-3 10-9 10-5 0-9-1-14-1-8-1-16 2-18-12-8-52-25-94-67-130-31-26-69-41-109-43-10 0-21 1-28-3-5-3-11-10-15-14-3-3-15-12-15-16z m59 124c0-10 0-14-1-24-1-7-5-14-7-26-1-5-2-7-2-12 0-7 14-5 18-5 23 0 65 24 84 38 9 7 23 23 29 33 5 7 12 18 15 26 9 24 9 21 11 51 1 9 1 15-9 20-14 7-23-3-38-13l-44-30c-4-3-7-9-13-15-3-3-4-5-8-7-1-2-2-2-4-4-13-9-15-6-24-11-10-6-7-9-7-21z m-102 300c0-6 8-14 11-20 4-7 5-15 16-11 4 1 7 2 12 3 10 3 36 9 45 9 25 0 50-5 73-14 30-11 22-14 38 7 6 7 16 16 0 23-32 13-51 20-85 25-37 6-69-6-103-16-4-1-7-2-7-6z m-137-191c0-16 14-5 17-3 2 1 3 2 5 3 3 2 7 5 10 7 3 1 4 1 6 3 7 4 5 14 10 24 1 11 5 18 8 25 3 5 5 7 5 14 0 10-9 13-14 18-2 2-2 2-4 4-2 1-2 2-4 3-7 5-9 0-13-6-15-25-21-48-25-76 0-5-1-11-1-16z"/>
<glyph glyph-name="cogs" unicode="&#88;" d="M225 72c9-2 20 0 28 2 6 1 13 2 18 4 8 2 16 6 19 13 3 5 4 21 4 27 1 15-2 31 14 39 4 2 10 3 15 1l6-2c4-2 7-3 11-4 10-3 29-11 38-5 5 3 5 4 8 8 5 6 9 13 13 19 4 7 9 13 12 21 2 9 0 17-6 24-6 6-11 11-16 16l-8 8c-5 6-6 9-6 16 0 9 4 13 10 17 3 2 6 3 9 4 10 7 26 13 33 22 4 6 3 15 2 22 0 4-1 6-1 10-2 7-4 14-6 19-8 19-13 21-36 22-8 0-18-1-26 2-14 5-17 21-13 34 1 3 2 6 3 9 7 20 8 29-10 42-6 5-14 10-21 14-27 13-36-4-51-17 0 0 0 0 0 0 0 0 0 0-1 0l0-1c-16-14-32-10-42 6l0-68c10 0 21-3 30-6 4-2 6-4 9-5 4-2 6-4 10-6 6-3 11-7 16-12 2-2 3-2 5-4l6-8c2-1 3-2 4-4l5-9c10-20 17-32 16-57 0-2 0-1 0-4-1-10-1-13-4-24-3-16-10-27-20-40-5-6-11-13-17-18-11-8-12-9-25-15-1 0 0 0-2-1l-14-4c-6-2-12-3-19-3l0-104z m-55 113c1 0 2 0 2-1 0 1-1 1-2 1z m43-9c1 0 2 0 3 0-1 0-2 0-3 0z m-98 244c-23 0-48 21-66-2-4-5-8-10-12-16-4-6-7-11-9-18-5-12 2-20 8-29l7-7c4-4 7-7 9-12 4-8 2-20-5-26-7-6-17-10-25-14-17-8-25-16-21-36 2-11 3-23 6-33 9-28 45-7 63-26 12-13 6-24 1-36-2-5-3-10-5-15-1-5-3-11-2-16 4-13 20-22 31-29 2-2 3-3 6-4 15-7 20-10 34 0 12 9 18 23 34 26 11 1 19-4 25-13 3-4 5-8 7-13 3-8 8-20 14-25 3-2 6-3 10-4l0 104c-22-2-45 4-63 13-11 6-21 15-29 24-6 6-15 21-18 30 0 3 0 3-1 5-2 6-6 15-6 21 0 4-1 8-1 12-1 4 0 11 0 13 0 4 0 7 1 11 1 6 4 15 6 20 3 9 4 11 8 19 2 3 3 5 5 8 8 11 13 13 22 21l6 5c13 10 35 19 50 19l3 0c8 0 4-1 10 0 2 0 5-1 7-1l0 68c-1 2-1 3-2 4-1 2-2 4-3 6-1 2-2 4-3 6-3 5-6 11-12 14-9 5-22 3-31 1-25-5-40-9-40-38 0-6-1-12-1-18-1-5-2-8-6-13-2-3-7-6-12-6z m321-196l3-22c1-7 0-17 2-23 3-10 9-15 11-26 1-2 1-3 2-5 2-11 1-28-4-38-1-1-2-3-3-4l-6-11c-3-3-10-10-13-12-2-1-3-2-5-3-18-10-40-9-57 1-4 2-5 4-8 6-18 12-20 27-27 27-9 0-8-17-11-27-3-14-12-30-8-39l5-6c12-12 20-16 37-7 6 4 10 6 18 6 17 0 16-27 36-27 4 0 9 2 13 3 6 2 10 3 15 9 1 1 1 3 2 5 3 8-1 28 16 29 7 1 15-5 26-3 14 3 29 25 21 38l-5 7c0 0 0 0 0 0-10 11-13 21 0 30 2 1 3 2 5 3 5 4 9 6 11 14 1 4 1 9-1 14 0 2-1 4-2 5-1 2-2 3-3 5-7 9-12 8-24 11-13 4-15 13-13 26 3 21-27 32-32 19 0-1-1-4-1-5z m-282 65c0-8 0-12 3-20 2-7 6-14 11-19 3-5 2-4 7-9 2-2 9-8 12-9 9-5 20-9 32-8 20 1 34 10 46 25 9 11 11 26 12 39 1 13-9 32-18 41-9 10-31 20-45 19-8-1-14-2-21-5-19-7-31-21-36-41-1-4-3-9-3-13z m267-143c-7 0-9-3-15-10l-8-9c-6-5-14-9-15-13-3-9 15-15 29-9 6 3 12 13 15 19 2 6 3 10 0 17-1 1-3 5-6 5z"/>
<glyph glyph-name="menu" unicode="&#89;" d="M117 91l0-26c0-8 1-14 5-18 4-6 14-6 22-6l229 0c15 0 22 3 25 9l-49 0 0 138-125 0c-10 0-16 3-15 14 1 11 8 12 16 12l124 0 0 45c-12-2-22 3-24 16-2 7 1 13 4 17 3 5 6 7 12 8 3 1 6 1 8 1l0 42-2 0-115 0c-7 0-15-1-20 3-4 3-5 12-1 16 4 5 14 5 22 5l116 0 0 44c-7-1-17 0-24 0l-144 0c-3 0-5 0-7 0l0-35c10-1 18-7 20-16 1-8-1-12-5-16-3-4-7-8-12-9-1 0-2-1-3-1l0 0 0-41c10 0 22-1 29-1 30 0 60 1 90 0 21 0 20-17 9-21-8-3-31-2-43-2l-85 0 0-46c4 0 10-4 12-6 10-8 11-20 1-30-5-5-9-8-13-8l0-88-57 0z m283 327c-1 3-3 5-6 7-2 2-5 4-8 5-5 1-16 3-21 0-2-1-3-3-4-5-1-2-2-5-3-7z m-229-239l1 0c0 0 0 0-1 0z m227-129c3 5 4 13 4 23l0 276c0 19 0 41 0 59 0 4-1 7-2 10l-42 0c-1-2-2-3-3-4-1-1-3-2-6-3l0-44c7 0 14 0 17-4 4-3 5-12 1-17-4-3-11-3-18-3l0-42c6-1 11-5 15-10 2-2 3-3 4-7 3-12-8-23-17-24 0-1-1-1-2-1l0-45 8 0c7 0 12-6 12-12 0-12-5-14-17-14l-3 0 0-138 49 0z m-281 357l0-316 57 0 0 88c-5-1-9 1-15 6-5 4-7 8-8 15-2 14 8 21 20 23 1 1 2 1 3 0l0 46-7 0c-21 0-18 19-9 22 3 1 9 2 16 2l0 41c-24-2-29 34-15 41 4 1 5 0 9 1 2 1 2 1 5 1l1 0 0 34c-6 1-9 3-12 9-3 8-4 11-15 12-20 0-30-6-30-25z m-42 5l0-335c0-11-1-36 2-44l8-15c3-6 6-8 12-11 14-7 19-7 39-7 23 0 40 0 63 0 26 1 51 0 77 0 23 0 47 1 70 0l30 0c11 0 26 0 36 4 3 1 11 4 14 6 7 7 12 14 12 28l0 18c0 14 1 37 0 49-1 10-11 9-12 3-2-6 0-59-2-74 0-8-4-11-9-15-7-4-10-5-20-5-8-1-17 0-25 0l-247 0c-11 0-18 2-25 8-6 6-8 14-8 26l0 379c0 12 3 17 9 23 10 10 23 8 38 8 7-1 20-1 23 4 3 8-7 10-12 10-12 1-34 1-42-3l-14-8c-7-4-6-6-9-13-3-5-6-8-7-15-1-6-1-14-1-21z m129 69c-21 0-19 0-18-32 0-9 4-11 13-11l118 0c19 0 17 8 17 25 0 18-1 18-24 18-17 0-21 4-29 13-3 4-7 7-10 11-3 2-8 8-14 7-5-1-18-15-22-20-10-9-11-11-31-11z m171-23c9 0 28 1 35-3 4-2 10-7 12-10 5-8 3-30 3-41l0-242c0-5-2-16 7-16 8 0 6 11 6 21 0 13 1 26 1 40l0 26c0 13-1 26-1 39 1 10 1 20 1 29l-1 5c-1 10 0 22 1 32l0 90c0 2-1 5-1 9 0 12-7 22-19 28-5 2-7 4-13 6-3 1-38 4-43-1-3-3-7-12 12-12z"/>
<glyph glyph-name="bug" unicode="&#90;" d="M243 446c-14 0-15-3-26-8-18-7-13-11-5-26 2-4 4-8 5-13 2-4 3-9 5-13 3-11 4-26 4-39 0-3 0-4 0-7 0-3 0-4 0-7 0-4 0-32-6-32-4 0-7 14-8 17-1 6-3 12-4 19-1 6-2 13-4 20-1 7-4 11-6 18-1 5-3 12-6 17l-3 8c-2 3-3 5-5 8l-9 14c-6 7-18 18-18 0 0-14 1-35-1-49l-1-38c0-14-5-22-7-35-5-28-4-14-10-33-2-9-4-13-8-21-1-4-2-7-4-10-2-3-3-6-5-9-4-7-8-12-12-18-6-11 6-20 12-27 5-5 10-10 14-15l33-39c3-3 5-5 7-8 3-3 4-5 7-8l47-54c14-17-8-24 1-42 4-8 9-12 16-16 2-1 5-2 7-3l0 57c0 1-1 1-2 1-6 3-5 10-5 18 0 16 0 31 0 47 0 9 1 63-1 70-2 7-5 9-10 13-15 14-17 31-2 48 6 6 13 7 20 7l0 188 9 0-14 0c-3 0-3 0-5 0z m10-449c1 0 1 0 1 0 6 0 12 4 15 6 8 6 15 19 11 29-3 8-4 7-4 17 0 5 3 8 6 11l14 17c8 10 17 20 26 30l40 46c8 10 17 17 25 27 2 4 5 6 7 10 11 12 8 14-1 28-9 13-9 17-16 30-2 6-4 10-6 17-1 7-4 10-6 16-3 6-2 12-4 19-2 15-8 17-8 38l0 28c0 10-1 22-2 33 0 5 0 13 1 17 0 4 0 9-1 12-1 4-3 4-4 4-2 0-4-2-6-4-12-9-18-22-24-36-4-6-11-28-12-36l-9-40c0-4-1-7-2-10-3-14-8-5-9 5-2 16-2 32-2 48 0 3 1 3 1 7 0 18 3 18 8 34 2 6 3 9 6 14 2 3 6 10 6 14 0 6-6 8-10 10-3 1-5 2-7 3-2 1-4 2-7 3-3 1-14 2-18 2l-9 0 0-188c2 0 4 0 6 0 17 0 29-21 27-35-1-6-7-16-12-20-3-2-6-4-8-7-6-9-4-24-4-36 0-31 1-63 0-94 0-6-3-12-9-12l0-57z m-78 461c7 0 9 1 15 5 12 7 15 5 26 9 8 3 18 5 27 5 5 0 9 1 14 1 8-1 18-1 26-3 6-1 13-4 23-7 9-2 12-6 20-9 10-3 14 0 21 6 7 6 8 12 0 17-6 5-11 8-18 11-12 6-33 12-45 14l-25 5c-9 1-17-2-25-3-9-2-16-3-25-5l-22-7-19-10c-5-3-15-9-10-17 2-5 11-12 17-12z"/>
<glyph glyph-name="honor" unicode="&#48;" d="M258 512c0 0-1 0-1 0 0 0-1 0-1 0 0 0 1 0 1 0z m-4 0c-1 0-1 0-1-1z m-5-3c-1 0-2-1-3-1-3-3-6-5-8-7-12-9-21-21-35-25-11-4-14-7-21-9-15-3-11-5-20-9-10-4-20-11-28-17-20-15-29-23-45-45-10-13-10-13-17-27-2-4-4-6-6-10-1-4-2-7-4-11-1-4-3-6-4-10-6-13 2-4-11-20-2-3-5-5-7-8-4-5-8-10-13-16-3-4-11-12-12-18-1-7 13-21 18-26 5-5 18-20 20-25 2-3 3-7 4-11 2-4 3-7 5-10 2-4 3-8 4-11l10-20c3-5 8-13 12-18 11-13 7-11 21-24 6-6 16-16 23-21l18-12c10-5 9-6 20-10 5-1 6-2 10-5 7-4 16-3 23-6 7-4 12-8 18-13 3-2 5-4 8-6 3-2 6-5 8-7 3-2 7-6 12-8l0 63 0 0c-17 4-19 0-34 7-5 3-10 4-14 7-8 5-18 10-26 14-13 7-35 26-45 38-8 8-12 19-17 24-3 5-4 8-6 14-2 6-5 9-6 15l-6 24c-1 1-2 7-2 9 0 3 0 6 0 10-1 23 1 27 5 48 3 11 2 8 5 17 1 4 0 7 1 11 1 10 14 27 22 33 4 3 8 6 11 10 7 7 15 14 24 20 6 6 7 5 13 9 5 3 9 5 14 7 9 5 21 13 29 16 9 3 10 4 15 6 4 1 10 2 17 2l0 62z m7-469c6 0 14 7 19 11 6 5 19 16 25 19 4 2 19 8 21 9 16 3 9-1 23 7 3 2 6 3 10 4 4 2 7 4 10 6 3 2 6 3 10 5 3 2 5 4 8 6 18 12 25 21 39 36 6 6 15 19 19 26 2 3 4 6 6 9 2 4 3 6 5 10 2 4 3 7 5 10 8 19 5 34 23 52l7 7c3 5 12 12 11 19-1 7-7 13-11 18-14 17-16 15-24 37-2 7-4 15-7 22-2 4-3 6-4 10l-11 20-19 26c-4 5-10 11-15 15-16 14-16 15-33 25-4 2-6 5-9 6-4 2-7 3-11 5-3 2-5 4-9 5-5 2-8 2-12 4-12 5-4 4-22 7-11 2-18 11-27 18l-12 10c-8 6-13 11-22 5l0-62c7 1 16 0 22 0 16 0 19-4 30-8 6-2 8-2 13-6 16-11 28-13 47-28 9-7 21-18 30-27 10-10 9-8 18-19 10-12 2-20 8-30 2-5 5-8 6-13 5-27 5-54 0-80-4-19-17-39-28-55-10-17-25-30-41-41l-39-22-15-7c-5-2-10-2-17-3-6-1-11-2-16-3-8-2-12-1-18 0l0-63c2-1 5-3 7-3z m-4 78c9 0 21 0 29 2 3 1 5 2 8 3 5 2 9 3 14 7 4 3 8 7 10 12 2 9 1 52 3 67 2 29 20 74 37 98 9 14 17 21 29 31 10 8 7 16-2 27-5 7-18 18-27 20-19 5-13 4-21 16-4 6-13 13-19 17-10 7-25 10-38 11-12 2-33 1-44-1-6-2-13-4-18-7-6-2-10-5-15-9-7-5-11-13-16-20-8-9-11-2-25-12-2-1-5-3-7-4l-12-12c-2-3-3-6-5-8-3-7-5-11 2-16 14-12 25-21 35-37 24-38 34-89 37-133 0-8-1-16 0-24 1-9 3-11 9-15 10-8 23-12 36-12z m-161-111c7 0 13 10 18 17 2 2 4 4 6 7l15 20c4 6 13 16 14 22 1 7-11 15-16 20-6 5-13 15-23 15-6 0-11-6-15-9l-39-38c-4-5-5-12-1-19 9-14 21-35 41-35z m287 69c0-7 5-11 10-18 2-3 3-4 5-7l29-37c5-7 6-9 17-6 17 5 24 19 33 33 7 12 2 18-9 27-5 5-9 9-14 14l-15 14c-3 3-11 13-17 13-2 0-5-1-7-2-3-2-3-3-5-4-6-5-27-22-27-27z m-189 90c0 7-2 10-5 13-10 10-17 17-26 29-20 25-22 52-22 81 0 8 4 16 2 23-2 4-8 12-14 12-7 0-8-13-12-23-11-32 6-84 25-109 10-13 22-25 35-35 10-8 17-5 17 9z m216 81c0 6 3 19 3 29 1 10-3 20-3 29 0 3-1 10-2 12-4 12-18 4-22-6-5-10 5-25 1-49-4-23-4-21-13-41-1-3-3-6-5-9-2-2-3-5-5-8-3-4-10-12-13-15-4-3-11-10-13-14-2-6-3-18 3-21 6-4 20 9 25 14 3 2 5 4 7 6l13 15c4 6 6 11 10 17 4 6 5 12 8 19 4 7 6 12 6 22z m-8-246c14 1-4 21-8 26-2 3-4 6-6 9-7 8-21 31-29 31-11 1-1-15 1-18 4-6 25-40 30-45 4-3 5-3 12-3z m-230 65c-1 0-1 0-2-1-7-3-16-16-20-22l-13-17c-3-4-10-14-12-18-2-8 12-14 24 5 2 3 4 6 6 9 2 3 4 6 6 9 2 3 4 6 6 9 3 6 9 14 11 19 1 5 0 9-6 7z m-79 58c0 11-10 7-16 2l-21-20c-2-2-4-4-6-6-4-3-12-10-12-16 0-5 6-11 15-2 5 5 10 9 14 14 5 4 26 22 26 28z m395-47l1 0c3 0 11 5 0 16-8 8-20 20-28 27-3 3-9 11-15 11-6 0-10-6-1-16l27-26c4-4 10-12 16-12z"/>
<glyph glyph-name="times" unicode="&#49;" d="M279 256l132 131c6 6 6 16 0 23-6 6-16 6-23 0l-131-131-133 132c-7 7-17 7-23 0-6-6-6-16 0-22l133-133-134-133c-6-6-6-16 0-23 7-6 17-6 23 0l133 133 133-132c6-7 16-7 23 0 6 6 6 16 0 22z"/>
<glyph glyph-name="arrow-right" unicode="&#77;" d="M209-1c-10 0-15 1-23 8-5 5-8 11-8 17l0 5c0 6 3 13 9 18 18 18 162 157 204 197 6 6 7 16-3 25l-201 195c-2 2-4 4-6 7-3 5-3 9-3 15l0 0c0 8 4 14 7 18 9 9 25 10 36 4 6-4 52-49 58-55l179-173c10-9 11-13 11-26 0-11-5-17-10-22l-229-221c-5-5-12-12-21-12z m-136 0c-10 0-15 1-24 8-4 5-7 11-7 17l0 5c0 6 3 13 9 18 18 18 162 157 204 197 6 6 7 16-3 25l-201 195c-3 2-4 4-6 7-3 5-4 9-4 15l0 0c0 8 4 14 8 18 9 9 25 10 36 4 6-4 52-49 58-55l179-173c9-9 11-13 11-26 0-11-5-17-10-22l-229-221c-5-5-12-12-21-12z"/>
<glyph glyph-name="arrow-left" unicode="&#50;" d="M302-1c10 0 15 1 23 8 5 5 7 11 8 17l0 5c-1 6-4 13-9 18-19 18-162 157-204 197-7 6-7 16 3 26l200 193c3 3 5 5 7 8 3 5 3 9 3 15l0 0c0 8-4 14-8 18-9 9-25 10-36 4-6-4-51-49-57-55l-180-173c-9-9-10-13-10-27 0-10 4-16 10-21l228-221c6-5 12-12 22-12z m136 0c10 0 15 1 23 8 5 5 7 11 8 17l0 5c-1 6-4 13-9 18-19 18-162 157-204 197-7 6-7 16 3 26l200 193c3 3 5 5 7 8 3 5 3 9 3 15l0 0c0 8-4 14-8 18-9 9-24 10-36 4-6-4-51-49-57-55l-179-173c-10-9-11-13-11-27 0-10 4-16 10-21l228-221c6-5 12-12 22-12z"/>
<glyph glyph-name="win" unicode="&#51;" d="M149 260c-14 31-21 66-21 106l-73 0 0-28c0-15 9-30 27-46 18-16 40-27 67-32z m308 78l0 28-73 0c0-40-7-75-21-106 27 5 49 16 67 32 18 16 27 31 27 46z m37 37l0-37c0-13-4-27-12-41-8-13-19-26-32-37-14-11-30-20-50-28-19-7-40-11-61-12-8-11-17-20-27-27-8-7-13-14-15-21-3-7-4-16-4-26 0-10 2-19 8-26 6-7 15-10 28-10 14 0 27-5 38-13 11-9 17-20 17-33l0-18c0-3-1-5-3-7-1-2-3-2-6-2l-238 0c-3 0-5 0-6 2-2 2-3 4-3 7l0 18c0 13 6 24 17 33 11 8 24 13 38 13 13 0 22 3 28 10 6 7 8 16 8 26 0 10-1 19-4 26-2 7-7 14-15 21-10 7-19 16-27 27-21 1-42 5-61 12-20 8-36 17-50 28-13 11-24 24-32 37-8 14-12 28-12 41l0 37c0 7 3 14 8 19 6 6 12 8 20 8l82 0 0 28c0 12 4 23 13 32 9 9 20 13 33 13l164 0c13 0 24-4 33-13 9-9 13-20 13-32l0-28 82 0c8 0 14-2 20-8 5-5 8-12 8-19z"/>
<glyph glyph-name="lose" unicode="&#52;" d="M361 161c1-5 1-10-2-14-2-4-5-7-10-9-5-2-10-1-14 1-5 2-8 6-9 11-5 15-14 28-27 37-13 9-27 14-43 14-16 0-30-5-43-14-13-9-22-22-27-37-1-5-4-9-9-11-4-2-9-3-14-1-5 2-8 5-10 9-3 4-3 9-2 14 7 23 21 41 40 56 19 14 41 21 65 21 24 0 46-7 65-21 19-15 33-33 40-56z m-142 168c0-10-3-19-10-26-7-7-16-10-26-10-10 0-19 3-26 10-7 7-11 16-11 26 0 10 4 19 11 26 7 7 16 11 26 11 10 0 19-4 26-11 7-7 10-16 10-26z m147 0c0-10-4-19-11-26-7-7-16-10-26-10-10 0-19 3-26 10-7 7-10 16-10 26 0 10 3 19 10 26 7 7 16 11 26 11 10 0 19-4 26-11 7-7 11-16 11-26z m73-73c0 25-5 48-15 71-9 23-22 42-39 58-16 17-35 30-58 39-23 10-46 15-71 15-25 0-48-5-71-15-23-9-42-22-58-39-17-16-30-35-39-58-10-23-15-46-15-71 0-25 5-48 15-71 9-23 22-42 39-58 16-17 35-30 58-39 23-10 46-15 71-15 25 0 48 5 71 15 23 9 42 22 58 39 17 16 30 35 39 58 10 23 15 46 15 71z m36 0c0-40-9-77-29-110-20-34-46-60-80-80-33-20-70-29-110-29-40 0-77 9-110 29-34 20-60 46-80 80-20 33-29 70-29 110 0 40 9 77 29 110 20 34 46 60 80 80 33 20 70 29 110 29 40 0 77-9 110-29 34-20 60-46 80-80 20-33 29-70 29-110z"/>
<glyph glyph-name="selected" unicode="&#53;" d="M224 160l32-160 32 160c-10-1-21-2-32-2-10 0-22 1-32 2z m127 149c-16 9-31 30-31 43l0 32c0 11 6 19 12 26 7 6 12 14 12 22 0 27-31 48-88 48-57 0-87-21-87-48 0-8 4-16 12-22 5-7 11-15 11-26l0-32c0-13-14-34-31-43-19-9-35-27-35-44 0-37 51-74 130-74 80 0 130 37 130 74 0 17-15 34-35 44z"/>
<glyph glyph-name="guaranteed" unicode="&#54;" d="M420 194c-4 0-8-1-12-2l-35 60 35 60c2-1 4-1 7-1 15 0 27 12 27 27 0 16-12 28-27 28-10 0-18-5-23-12l-78 0-36 62c3 5 5 10 5 15 0 16-13 28-28 28-15 0-28-12-28-28 0-5 2-10 5-14l-37-63-79 0c-5 9-14 14-24 14-15 0-28-12-28-27 0-15 13-28 28-28 4 0 8 2 12 3l35-60-35-60c-2 1-4 1-7 1-15 0-27-12-27-28 0-15 12-27 27-27 10 0 18 5 23 12l78 0 35-61c-2-3-4-8-4-12 0-16 13-28 28-28 15 0 28 12 28 28 0 4-2 8-4 12l36 61 79 0c5-9 14-15 24-15 15 0 28 13 28 28 0 15-13 27-28 27z"/>
<glyph glyph-name="left-arrow" unicode="&#55;" d="M338 512l-256-256 256-255 0 0 0 128 0 0-128 127 128 128 0 0 0 128z m0-164l-92-92 92-91 91 91z m0-62l-30-30 30-29 29 29z"/>
<glyph glyph-name="right-arrow" unicode="&#56;" d="M174 512l255-256-255-255-1 0 0 128 1 0 128 127-128 128-1 0 0 128z m0-164l91-92-91-91-92 91z m0-62l29-30-29-29-30 29z"/>
<glyph glyph-name="note" unicode="&#57;" d="M503 391l-96 96c-6 6-15 9-23 9l-336 0c-26 0-48-22-48-48l0-384c0-26 22-48 48-48l416 0c26 0 48 22 48 48l0 304c0 8-3 17-9 23z m-23-327c0-9-7-16-16-16l-416 0c-9 0-16 7-16 16l0 384c0 9 7 16 16 16l320 0 0-64 0 0c0-27 21-48 48-48l64 0z m-48 304l-16 0c-18 0-32 14-32 32l0 0 0 64 96-96z m-184 16l80 0c4 0 8 4 8 8 0 4-4 8-8 8l-80 0c-4 0-8-4-8-8 0-4 4-8 8-8z m0-48l80 0c4 0 8 4 8 8 0 4-4 8-8 8l-80 0c-4 0-8-4-8-8 0-4 4-8 8-8z m-8-40c0-4 4-8 8-8l192 0c4 0 8 4 8 8 0 4-4 8-8 8l-192 0c-4 0-8-4-8-8z m200-88l-368 0c-4 0-8-4-8-8 0-4 4-8 8-8l368 0c4 0 8 4 8 8 0 4-4 8-8 8z m0-48l-368 0c-4 0-8-4-8-8 0-4 4-8 8-8l368 0c4 0 8 4 8 8 0 4-4 8-8 8z m0-48l-368 0c-4 0-8-4-8-8 0-4 4-8 8-8l368 0c4 0 8 4 8 8 0 4-4 8-8 8z m0 144l-368 0c-4 0-8-4-8-8 0-4 4-8 8-8l368 0c4 0 8 4 8 8 0 4-4 8-8 8z m-360 32l112 0c9 0 16 7 16 16l0 96c0 9-7 16-16 16l-112 0c-9 0-16-7-16-16l0-96c0-9 7-16 16-16z m16 96l80 0 0-64-80 0z"/>
<glyph glyph-name="select" unicode="&#33;" d="M213 384l0-192-96 0 139-139 139 139-96 0 0 193c0 23-19 42-43 42-24 0-43-20-43-43z"/>
<glyph glyph-name="phonograph" unicode="&#34;" d="M0 418l113 22c-34-42-55-95-55-153 0-121 89-221 204-239l-185-35-77 405z m302-67c35-1 62-29 62-64 0-35-27-63-62-64l0 34c15 1 28 14 28 30 0 16-13 28-28 29z m192 20c11-26 17-54 17-84 0-117-94-212-211-212-117 0-211 95-211 212 0 65 29 123 76 162l0-209c-14-5-26-10-36-16 3-20 16-39 34-58l45 41 35 0c16-12 36-19 57-19 54 0 99 44 99 99 0 35-19 66-47 84l37 0-1-1c11-12 17-25 24-39 21 7 40 15 57 24-1 6-3 11-5 16l30 0z m-18-250l6-31-59-11c20 11 38 26 53 42z m-268 86l35 0c-25 18-41 47-41 80 0 54 44 98 98 98 19 0 37-5 52-14l37 0 47 38c12-13 22-25 28-38l30 0c-32 75-107 127-194 127-51 0-99-18-135-49l0-209c7 3 15 5 23 8l22-39-2-2z m94 16l0 34c-1 0-1 0-2 0-16 0-30 13-30 30 0 16 14 30 30 30 1 0 1-1 2-1l0 35c-1 0-1 0-2 0-35 0-64-29-64-64 0-36 29-64 64-64 1 0 1 0 2 0z"/>
<glyph glyph-name="play" unicode="&#35;" d="M394 256c0 4-2 8-6 10l-252 146c-2 1-4 2-7 2-6 0-11-5-11-12 0 0 0-1 0-1l0 0 0-293 0 0c1-5 5-10 11-10 2 0 4 1 6 2l0 0 253 146 0 0c4 2 6 6 6 10z"/>
<glyph glyph-name="pause" unicode="&#36;" d="M208 410c-1 0-1 0-2 0l0 0-53 0c-6 0-11-5-11-11 0 0 0 0 0 0l0 0 0-286 0 0c0 0 0 0 0 0 0-6 5-11 11-11l55 0c6 0 11 5 11 11 0 0 0 0 0 0l0 0 0 286c0 0 0 0 0 0 0 6-5 11-11 11z m162-297l0 286c0 0 0 0 0 0 0 6-5 11-11 11-1 0-1 0-2 0l0 0-53 0c-6 0-11-5-11-11 0 0 0 0 0 0l0 0 0-286 0 0c0 0 0 0 0 0 0-6 5-11 11-11l55 0c6 0 11 5 11 11 0 0 0 0 0 0z"/>
<glyph glyph-name="music" unicode="&#37;" d="M303 497c0-15 8-31 24-50 15-19 31-36 46-51 15-16 25-36 31-61 6-25-1-52-20-79-7-12-11-14-13-8-1 2-1 5 0 8 3 6 4 16 3 29-2 13-4 26-7 40-3 13-10 26-22 37-12 11-26 18-42 21 0 0 0-274 0-274 1-17-6-33-19-49-13-16-31-28-54-36-25-10-49-11-73-5-23 7-39 20-46 39-6 19-3 39 11 59 13 20 33 35 59 44 29 10 56 11 81 2 0 0 0 334 0 334 0 0 41 0 41 0"/>
<glyph glyph-name="volume-up" unicode="&#38;" d="M238 411l0-310c0-5-2-10-6-13-3-4-8-6-13-6-5 0-9 2-12 6l-96 95-74 0c-5 0-10 2-13 5-4 4-6 8-6 13l0 110c0 5 2 9 6 13 3 3 8 5 13 5l74 0 96 95c3 4 7 6 12 6 5 0 10-2 13-6 4-3 6-8 6-13z m109-155c0-14-4-28-12-40-8-13-19-22-32-27-2-1-4-2-7-2-5 0-9 2-13 6-3 3-5 8-5 13 0 4 1 7 3 10 2 3 5 5 8 7 4 2 7 4 10 7 3 2 6 5 8 10 3 4 4 10 4 16 0 6-1 12-4 16-2 5-5 8-8 10-3 3-6 5-10 7-3 2-6 4-8 7-2 3-3 6-3 10 0 5 2 10 5 13 4 4 8 6 13 6 3 0 5-1 7-2 13-5 24-14 32-26 8-13 12-27 12-41z m74 0c0-29-9-56-25-81-16-24-37-42-64-54-2-1-5-1-7-1-5 0-10 2-13 5-4 4-6 8-6 13 0 8 4 13 11 17 11 6 18 10 22 13 14 10 25 23 33 38 8 16 12 32 12 50 0 18-4 34-12 50-8 15-19 28-33 38-4 3-11 7-22 13-7 4-11 9-11 17 0 5 2 9 6 13 3 3 8 5 13 5 2 0 5 0 7-1 27-12 48-30 64-54 16-25 25-52 25-81z m73 0c0-44-12-84-37-121-24-36-56-63-96-81-3-1-5-1-8-1-5 0-9 2-12 5-4 4-6 8-6 13 0 7 4 13 11 17 2 1 4 2 7 3 3 1 5 2 6 3 9 5 17 10 24 15 23 17 41 39 54 64 14 26 20 54 20 83 0 29-6 57-20 83-13 25-31 47-54 64-7 5-15 10-24 15-1 1-3 2-6 3-3 1-5 2-7 3-7 4-11 10-11 17 0 5 2 9 6 13 3 3 7 5 12 5 3 0 5 0 8-1 40-18 72-45 96-81 25-37 37-77 37-121z"/>
<glyph glyph-name="volume-off" unicode="&#39;" d="M366 411l0-310c0-5-2-10-6-13-3-4-8-6-13-6-5 0-9 2-12 6l-96 95-74 0c-5 0-10 2-13 5-4 4-6 8-6 13l0 110c0 5 2 9 6 13 3 3 8 5 13 5l74 0 96 95c3 4 7 6 12 6 5 0 10-2 13-6 4-3 6-8 6-13z"/>
<glyph glyph-name="volume-down" unicode="&#40;" d="M311 411l0-310c0-5-2-10-6-13-3-4-7-6-12-6-5 0-10 2-13 6l-95 95-75 0c-5 0-10 2-13 5-4 4-6 8-6 13l0 110c0 5 2 9 6 13 3 3 8 5 13 5l75 0 95 95c3 4 8 6 13 6 5 0 9-2 12-6 4-3 6-8 6-13z m110-155c0-14-4-28-13-40-8-13-18-22-32-27-2-1-4-2-7-2-5 0-9 2-13 6-3 3-5 8-5 13 0 4 1 7 3 10 3 3 5 5 9 7 3 2 6 4 9 7 4 2 6 5 9 10 2 4 3 10 3 16 0 6-1 12-3 16-3 5-5 8-9 10-3 3-6 5-9 7-4 2-6 4-9 7-2 3-3 6-3 10 0 5 2 10 5 13 4 4 8 6 13 6 3 0 5-1 7-2 14-5 24-14 32-26 9-13 13-27 13-41z"/>
<glyph glyph-name="suffle" unicode="&#41;" d="M3 363c0-46 49-6 116-55 21-16 64-60 85-81 45-45 81-88 151-98 25-4 52-4 81-4-10-15-41-29-22-52 3-4 9-6 15-6 14 0 18 8 25 15l40 40c31 31 19 31-31 81-7 7-19 22-27 25-15 4-28-10-28-20 0-16 21-27 28-38-55 0-94-3-138 28-32 22-59 53-86 80-48 49-77 85-149 100l-38 4c-12 1-23-8-23-19z m405 58c0-12 21-26 28-37-21 0-45 2-65-1-11-1-19-2-29-4-5-2-9-2-13-4-5-2-8-3-14-5-19-6-77-40-77-59 0-20 21-34 42-13 16 17 51 34 75 39 22 4 59 4 83 4-6-9-30-25-30-37 0-13 10-23 23-23 12 0 35 28 44 36 8 9 36 32 36 44l0 7c0 5-67 76-80 76-12 0-23-11-23-23z m-389-293c53 0 91 15 129 44l21 19c13 19-8 34-15 34-13 0-16-5-22-12-17-15-44-30-66-35-24-6-50-5-58-11-14-10-9-39 11-39z"/>
<glyph glyph-name="loop" unicode="&#42;" d="M338 389c-9-41 15-29 36-34 57-13 64-17 90-67 6-15 7-35 3-52-26-119-185-61-269-79 0-14 5-17 17-29 6-5 60-65 60-67 20-6 37 1 33 25-9 11-22 21-27 32 85 2 125-12 184 37 15 13 35 41 41 69 12 58-11 123-65 151-28 15-74 33-103 14z m-288-25c-4-3-13-14-18-19-5-6-11-14-15-23-14-34-20-40-16-82 1-11 13-46 18-53 20-27 40-51 75-60 22-8 48-14 70-3 18 39-32 33-57 43-23 9-50 34-59 55-12 28-7 61 9 87l18 20c6 5 14 11 19 14 6 3 11 5 18 7 52 10 80 7 132 6 14 0 47-3 58 3 2 16-21 36-33 48-24 24-39 50-58 45-38-13 5-47 10-56-24 1-49 0-73 0-42 0-65-9-98-32z"/>
<glyph glyph-name="spinner" unicode="&#43;" d="M150 114c0-10-3-19-10-26-8-7-16-11-26-11-10 0-19 4-26 11-7 7-11 16-11 26 0 10 4 18 11 26 7 7 16 10 26 10 10 0 18-3 26-10 7-8 10-16 10-26z m143-59c0-10-4-19-11-26-7-7-16-11-26-11-10 0-19 4-26 11-7 7-11 16-11 26 0 10 4 19 11 26 7 7 16 10 26 10 10 0 19-3 26-10 7-7 11-16 11-26z m-202 201c0-10-3-19-10-26-7-7-16-11-26-11-10 0-19 4-26 11-7 7-11 16-11 26 0 10 4 19 11 26 7 7 16 11 26 11 10 0 19-4 26-11 7-7 10-16 10-26z m344-142c0-10-4-19-11-26-7-7-16-11-26-11-10 0-18 4-26 11-7 7-10 16-10 26 0 10 3 18 10 26 8 7 16 10 26 10 10 0 19-3 26-10 7-8 11-16 11-26z m-276 284c0-12-4-23-13-32-9-9-20-13-32-13-13 0-24 4-33 13-9 9-13 20-13 32 0 13 4 24 13 33 9 9 20 13 33 13 12 0 23-4 32-13 9-9 13-20 13-33z m335-142c0-10-4-19-11-26-7-7-16-11-26-11-10 0-19 4-26 11-7 7-10 16-10 26 0 10 3 19 10 26 7 7 16 11 26 11 10 0 19-4 26-11 7-7 11-16 11-26z m-183 201c0-15-5-28-16-39-11-10-24-16-39-16-15 0-28 6-39 16-11 11-16 24-16 39 0 15 5 28 16 39 11 11 24 16 39 16 15 0 28-5 39-16 11-11 16-24 16-39z m151-59c0-17-6-33-19-45-12-12-27-19-45-19-17 0-33 7-45 19-12 12-19 28-19 45 0 18 7 33 19 45 12 13 28 19 45 19 18 0 33-6 45-19 13-12 19-27 19-45z"/>
<glyph glyph-name="server" unicode="&#44;" d="M241 128l-154 0c-25 0-47 21-47 43 0 19 4 31 20 42 10 8 19 8 31 10 24 3 9 5 26 33 25 41 55 37 102 37l19 35c1 1 2 3 3 4l0 57c-8-7-17-14-21-19-5-6-9-12-14-18-4-6-7-12-11-19-41 0-66-5-95-35-22-21-20-36-28-38-3-1-5-1-9-2-7-2-16-5-22-10-53-35-53-103-7-141 15-13 36-19 56-19l151 0 0 40z m102 0l-102 0 0-40 100 0c42 0 77 13 108 37 35 27 64 78 64 125 0 32-1 36-11 66-10 31-36 61-63 80-5 3-8 5-13 8-51 31-124 26-174-7-3-2-7-5-11-8l0-57c33 48 97 67 155 43 16-7 34-20 45-33 24-30 32-49 32-92 0-21-9-44-18-60-24-39-65-62-112-62z m-33 107c-14 7-36-6-36-26 0-12 9-23 18-26 12-4 25 0 32 9 7 11 5 22 5 40 0 15 0 30 0 45l53 23c3 1 5 3 8 4 4 2 6 2 9 4l0-73c-16 8-37-9-37-25 0-39 56-36 56-3l0 116c0 6-5 11-14 8-4-1-6-2-9-4l-66-29c-25-13-19 0-19-63z"/>
<glyph glyph-name="facebook" unicode="&#45;" d="M384 509l0-76-45 0c-17 0-28-3-33-10-6-7-9-17-9-31l0-54 84 0-11-85-73 0 0-216-87 0 0 216-73 0 0 85 73 0 0 62c0 36 10 63 29 83 20 19 47 29 80 29 28 0 49-1 65-3z"/>
<glyph glyph-name="twitter" unicode="&#46;" d="M453 378c-14-6-30-11-46-12 16 10 29 25 35 44-15-9-33-16-51-19-15 15-36 25-59 25-45 0-81-36-81-81 0-6 1-12 2-18-67 3-127 35-167 84-7-12-11-25-11-40 0-28 15-53 36-68-13 1-25 4-36 11 0-1 0-1 0-2 0-39 28-71 65-79-7-2-14-3-22-3-5 0-10 1-15 2 10-32 40-56 76-56-28-22-63-35-101-35-6 0-13 0-19 1 36-23 78-36 124-36 149 0 230 123 230 230 0 3 0 7 0 10 16 12 29 26 40 42z"/>
<glyph glyph-name="dot-3" unicode="&#47;" d="M77 312c16 0 29-5 40-16 11-11 16-24 16-40 0-15-5-28-16-39-11-12-24-17-40-17-16 0-29 5-40 17-11 11-17 24-17 39 0 16 6 29 17 40 11 11 24 16 40 16m179 0c16 0 29-5 40-16 11-11 16-24 16-40 0-15-5-28-17-39-11-12-24-17-39-17-15 0-28 5-39 17-12 11-17 24-17 39 0 16 5 29 16 40 11 11 24 16 40 16m179 0c16 0 29-5 40-16 11-11 17-24 17-40 0-15-6-28-17-39-11-12-24-17-40-17-15 0-29 5-40 17-11 11-16 24-16 39 0 16 5 29 16 40 11 11 25 16 40 16"/>
<glyph glyph-name="clone" unicode="&#58;" d="M475 46l0 311c0 2 0 4-2 6-2 2-4 3-7 3l-311 0c-2 0-4-1-6-3-2-2-3-4-3-6l0-311c0-3 1-5 3-7 2-2 4-2 6-2l311 0c3 0 5 0 7 2 2 2 2 4 2 7z m37 311l0-311c0-13-4-24-13-33-9-9-20-13-33-13l-311 0c-12 0-23 4-32 13-9 9-13 20-13 33l0 311c0 12 4 23 13 32 9 9 20 13 32 13l311 0c13 0 24-4 33-13 9-9 13-20 13-32z m-110 109l0-45-36 0 0 45c0 3-1 5-3 7-2 2-4 2-6 2l-311 0c-3 0-5 0-7-2-2-2-2-4-2-7l0-311c0-2 0-4 2-6 2-2 4-3 7-3l45 0 0-36-45 0c-13 0-24 4-33 13-9 9-13 20-13 32l0 311c0 13 4 24 13 33 9 9 20 13 33 13l311 0c12 0 23-4 32-13 9-9 13-20 13-33z"/>
<glyph glyph-name="link" unicode="&#59;" d="M202 136c5 5 10 7 17 7 7 0 13-2 19-7 10-11 10-23 0-36 0 0-22-20-22-20-19-19-42-29-68-29-26 0-49 10-68 29-19 19-29 42-29 67 0 27 10 50 29 69 0 0 76 76 76 76 24 23 48 36 73 39 26 3 47-4 66-22 5-5 8-11 8-18 0-7-3-13-8-19-12-11-24-11-36 0-17 17-40 11-68-17 0 0-75-75-75-75-9-9-14-20-14-33 0-13 5-23 14-31 9-9 19-14 32-14 13 0 23 5 32 14 0 0 22 20 22 20m230 294c19-19 29-42 29-68 0-26-10-49-29-68 0 0-81-81-81-81-25-25-51-37-77-37-21 0-40 9-57 26-5 5-7 10-7 17 0 7 2 13 7 19 5 4 11 7 18 7 7 0 13-3 18-7 17-17 38-13 62 12 0 0 81 80 81 80 10 9 15 20 15 32 0 13-5 24-15 32-8 9-17 14-28 16-11 2-22-2-31-11 0 0-26-25-26-25-5-5-11-7-18-7-7 0-13 2-18 7-11 11-11 23 0 36 0 0 26 25 26 25 18 19 40 27 65 26 25-1 47-11 66-31"/>
<glyph glyph-name="save" unicode="&#60;" d="M146 73l220 0 0 110-220 0z m256 0l37 0 0 256c0 3-1 6-3 11-2 5-4 8-6 10l-80 80c-2 2-5 4-10 6-4 2-8 3-11 3l0-119c0-8-3-14-8-19-5-6-12-8-19-8l-165 0c-7 0-14 2-19 8-6 5-8 11-8 19l0 119-37 0 0-366 37 0 0 119c0 8 2 14 8 19 5 6 12 8 19 8l238 0c7 0 14-2 19-8 6-5 8-11 8-19z m-109 265l0 92c0 2-1 4-3 6-2 2-4 3-7 3l-54 0c-3 0-5-1-7-3-2-2-3-4-3-6l0-92c0-2 1-4 3-6 2-2 4-3 7-3l54 0c3 0 5 1 7 3 2 2 3 4 3 6z m182-9l0-265c0-8-2-14-8-19-5-6-11-8-19-8l-384 0c-8 0-14 2-19 8-6 5-8 11-8 19l0 384c0 8 2 14 8 19 5 6 11 8 19 8l265 0c8 0 16-1 25-5 9-4 17-9 22-14l80-80c5-5 10-13 14-22 4-9 5-17 5-25z"/>
<glyph glyph-name="instagram" unicode="&#61;" d="M256 387c-73 0-131-58-131-131 0-73 59-131 131-131 73 0 131 59 131 131 0 73-58 131-131 131z m0-216c-47 0-85 38-85 85 0 47 38 85 85 85 47 0 85-38 85-85 0-47-38-85-85-85z m106 339c-48 3-164 2-211 0-42-2-78-12-108-41-49-49-43-116-43-213 0-100-5-164 43-213 50-49 117-43 213-43 99 0 133 0 168 14 47 18 83 60 86 137 3 47 2 163 0 211-4 89-52 144-148 148z m74-434c-32-33-77-30-181-30-106 0-149-1-180 30-36 36-30 93-30 180 0 118-12 203 107 209 27 1 35 2 103 2l1-1c114 0 203 12 208-106 2-27 2-36 2-104 0-105 2-148-30-180z m-13 317c0-17-13-31-30-31-17 0-31 14-31 31 0 17 14 30 31 30 17 0 30-13 30-30z"/>
<glyph glyph-name="pinterest" unicode="&#62;" d="M475 256c0-40-9-77-29-110-20-34-46-60-80-80-33-20-70-29-110-29-21 0-42 3-62 9 11 17 18 33 22 47 2 6 7 26 15 60 4-8 11-14 21-19 10-6 21-9 33-9 23 0 43 7 62 20 18 13 32 31 42 54 9 23 14 48 14 77 0 22-5 42-17 61-11 19-27 35-49 47-21 12-46 18-73 18-20 0-38-3-56-9-17-5-32-12-44-22-12-9-22-19-31-31-9-12-15-24-19-37-4-13-6-26-6-38 0-20 4-38 11-53 8-15 19-25 34-31 5-3 9-1 10 5 1 2 2 5 3 9 1 5 2 8 2 9 1 4 0 8-3 12-10 12-15 26-15 43 0 29 10 54 30 74 20 21 46 31 78 31 29 0 51-8 68-23 16-16 24-36 24-61 0-32-7-60-20-83-13-22-30-34-50-34-12 0-21 5-28 13-7 8-9 18-7 30 2 6 4 15 8 26 4 12 6 21 9 30 2 8 3 16 3 21 0 10-3 18-8 24-5 6-12 10-22 10-12 0-22-6-30-17-8-11-12-24-12-40 0-14 2-26 7-35l-28-120c-4-13-5-30-4-50-39 17-71 44-95 80-24 36-36 77-36 121 0 40 9 77 29 110 20 34 46 60 80 80 33 20 70 29 110 29 40 0 77-9 110-29 34-20 60-46 80-80 20-33 29-70 29-110z"/>
<glyph glyph-name="eye" unicode="&#63;" d="M475 238c-29 45-65 78-108 101 11-20 17-42 17-65 0-35-13-65-38-90-25-25-55-38-90-38-35 0-65 13-90 38-25 25-38 55-38 90 0 23 6 45 17 65-43-23-79-56-108-101 25-39 57-70 95-94 38-23 79-34 124-34 45 0 86 11 124 34 38 24 70 55 95 94z m-205 109c0 4-2 7-4 10-3 3-6 4-10 4-24 0-44-8-61-25-17-17-26-38-26-62 0-4 1-7 4-9 3-3 6-4 10-4 4 0 7 1 10 4 2 2 4 5 4 9 0 17 5 31 17 42 12 12 26 18 42 18 4 0 7 1 10 4 2 2 4 6 4 9z m242-109c0-7-2-13-6-20-26-44-62-79-107-105-45-27-93-40-143-40-50 0-98 13-143 40-45 26-81 61-107 105-4 7-6 13-6 20 0 6 2 13 6 19 26 44 62 79 107 106 45 26 93 39 143 39 50 0 98-13 143-39 45-27 81-62 107-106 4-6 6-13 6-19z"/>
<glyph glyph-name="eye-slash" unicode="&#64;" d="M159 131l22 40c-17 12-30 27-39 45-9 19-14 38-14 58 0 23 6 45 17 65-43-23-79-56-108-101 31-49 72-85 122-107z m111 216c0 4-2 7-4 10-3 3-6 4-10 4-24 0-44-8-61-25-17-17-26-38-26-62 0-4 1-7 4-9 3-3 6-4 10-4 4 0 7 1 10 4 2 2 4 5 4 9 0 17 5 31 17 42 12 12 26 18 42 18 4 0 7 1 10 4 2 2 4 6 4 9z m103 55c0-1 0-2 0-3-20-35-50-89-90-161-40-72-70-126-90-162l-14-26c-2-3-5-4-8-4-2 0-15 6-38 20-3 2-5 4-5 8 0 2 4 10 13 25-28 12-53 28-76 49-23 21-43 44-59 70-4 6-6 12-6 20 0 7 2 14 6 19 29 45 65 81 108 106 44 26 91 39 142 39 17 0 34-1 51-5l16 28c2 3 4 5 8 5 1 0 3-1 5-2 2-1 5-3 9-4 3-2 6-4 9-6 3-1 6-3 9-5 3-2 5-3 6-3 3-2 4-5 4-8z m11-128c0-26-8-50-23-72-15-22-35-38-59-47l80 143c1-8 2-16 2-24z m128-36c0-7-2-14-6-20-7-12-18-26-31-41-28-33-62-59-99-77-38-18-78-27-120-27l21 38c41 3 78 16 112 39 35 23 63 52 86 88-21 34-48 62-80 84l18 32c18-12 35-27 52-44 17-17 30-34 41-53 4-6 6-13 6-19z"/>
<glyph glyph-name="lock" unicode="&#91;" d="M183 293l146 0 0 54c0 21-7 38-21 52-15 14-32 22-52 22-20 0-37-8-52-22-14-14-21-31-21-52z m238-28l0-164c0-8-3-15-8-20-6-5-12-8-20-8l-274 0c-8 0-14 3-20 8-5 5-8 12-8 20l0 164c0 8 3 14 8 20 6 5 12 8 20 8l9 0 0 54c0 35 13 66 38 91 25 25 55 37 90 37 35 0 65-12 90-37 25-25 38-56 38-91l0-54 9 0c8 0 14-3 20-8 5-6 8-12 8-20z"/>
<glyph glyph-name="chat" unicode="&#93;" d="M62 345c-3-262-3-178 215-191 52-3 126-58 172-82l-12 81c83 1 78 7 74 192l-76 0c2-4 3-8 3-13 0-16-13-28-29-28-15 0-28 12-28 28 0 5 1 9 3 13l-72 0c1-4 3-8 3-13 0-16-13-28-29-28-16 0-28 12-28 28 0 5 1 9 2 13l-72 0c2-4 3-8 3-13 0-16-13-28-28-28-16 0-29 12-29 28 0 5 1 9 3 13z m1 123c0-48-1-89-1-123l75 0c4 9 14 16 26 16 11 0 21-7 25-16l72 0c5 9 15 16 26 16 11 0 21-7 26-16l72 0c4 9 14 16 25 16 12 0 21-7 26-16l76 0c-1 34-1 75-1 123 0 24-17 41-41 41l-366 0c-24 0-40-17-40-41z m-61-172c0-225-21-224 81-224-7-30-10-31-10-71 35 19 75 46 113 63 45 21 126-11 154 41 0 12-13 9-14 9-13-33-55-31-133-33-22-4-48-28-105-56 0 33 9 35 11 58-108 0-85-5-85 197-4 63 24 23 28 56-23-6-40-10-40-40z"/>
<glyph glyph-name="cog-bold" unicode="&#94;" d="M430 256c0-25 14-45 41-62-4-14-10-28-17-42-24 6-47-2-70-23-18-20-24-43-17-70-14-6-28-13-43-18-16 28-39 42-68 42-29 0-52-14-68-42-15 5-29 12-43 18 7 28 1 51-17 70-18 18-42 24-70 17-4 9-10 23-17 42 28 18 42 41 42 68 0 25-14 46-42 63 7 20 13 34 17 42 26-6 49 2 70 23 18 19 24 42 17 70 15 7 29 13 43 17 16-27 39-41 68-41 29 0 52 14 68 41 14-4 28-10 43-17-7-27-1-50 17-70 23-21 46-29 70-23 7-14 13-28 17-42-27-17-41-38-41-63m-174-93c26 0 48 9 66 27 18 18 27 40 27 66 0 26-9 48-27 67-18 18-40 27-66 27-26 0-48-9-66-27-18-19-27-41-27-67 0-26 9-48 27-66 18-18 40-27 66-27"/>
</font>
</defs>
</svg>
