<?xml version="1.0" encoding="UTF-8"?>
<!DOCTYPE svg PUBLIC "-//W3C//DTD SVG 1.1//EN" "http://www.w3.org/Graphics/SVG/1.1/DTD/svg11.dtd">
<!-- Creator: CorelDRAW -->
<svg xmlns="http://www.w3.org/2000/svg" xml:space="preserve" width="79.5754mm" height="79.5754mm" version="1.1" style="shape-rendering:geometricPrecision; text-rendering:geometricPrecision; image-rendering:optimizeQuality; fill-rule:evenodd; clip-rule:evenodd"
viewBox="0 0 1506.33 1506.33"
 xmlns:xlink="http://www.w3.org/1999/xlink"
 xmlns:xodm="http://www.corel.com/coreldraw/odm/2003">
 <defs>
  <style type="text/css">
   <![CDATA[
    .fil0 {fill:#353535}
   ]]>
  </style>
 </defs>
 <g id="Layer_x0020_1">
  <metadata id="CorelCorpID_0Corel-Layer"/>
  <path class="fil0" d="M753.17 0c177.95,0 341.46,61.75 470.34,164.95 3.18,-4.65 8.53,-7.7 14.59,-7.7 9.76,0 17.67,7.91 17.67,17.67 0,4.95 -2.04,9.43 -5.32,12.64 156.87,138.03 255.9,340.24 255.9,565.62 0,129.57 -32.73,251.49 -90.36,357.97 2.68,1.69 4.47,4.68 4.47,8.08 0,5.27 -4.27,9.54 -9.54,9.54 -1.51,0 -2.93,-0.35 -4.2,-0.97 -129.94,226.2 -373.95,378.54 -653.53,378.54 -183.3,0 -351.28,-65.51 -481.88,-174.35 -3.24,3.63 -7.94,5.91 -13.19,5.91 -9.76,0 -17.67,-7.91 -17.67,-17.67 0,-4.39 1.6,-8.4 4.25,-11.49 -150.37,-137.7 -244.68,-335.61 -244.68,-555.57 0,-85.62 14.31,-167.9 40.64,-244.59 -3.48,-1.42 -5.94,-4.84 -5.94,-8.84 0,-5.27 4.27,-9.54 9.54,-9.54 0.98,0 1.93,0.15 2.82,0.43 106.57,-286.5 382.48,-490.61 706.1,-490.61zm496.51 188.25c0.08,-0.07 0.16,-0.14 0.24,-0.22l-0.24 0.22zm-11.58 -30c9.2,0 16.66,7.46 16.66,16.66 0,9.2 -7.46,16.66 -16.66,16.66 -9.2,0 -16.66,-7.46 -16.66,-16.66 0,-9.2 7.46,-16.66 16.66,-16.66zm172.81 951.43c1.49,0 2.9,0.34 4.16,0.95 57.54,-106.32 90.22,-228.07 90.22,-357.46 0,-225.1 -98.92,-427.07 -255.62,-564.91 -3.1,2.69 -7.14,4.31 -11.57,4.31 -9.76,0 -17.67,-7.91 -17.67,-17.67 0,-3.32 0.91,-6.42 2.51,-9.08 -128.72,-103.09 -292.03,-164.78 -469.77,-164.78 -323.16,0 -598.69,203.83 -705.12,489.93 3.38,1.47 5.74,4.84 5.74,8.75 0,5.27 -4.27,9.54 -9.54,9.54 -0.91,0 -1.79,-0.13 -2.61,-0.36 -26.29,76.59 -40.59,158.75 -40.59,244.25 0,219.65 94.18,417.29 244.34,554.8 3.21,-3.33 7.72,-5.4 12.72,-5.4 9.76,0 17.67,7.91 17.67,17.67 0,4.14 -1.42,7.94 -3.8,10.95 130.42,108.69 298.16,174.11 481.21,174.11 279.19,0 522.85,-152.13 652.62,-378.01 -2.66,-1.69 -4.43,-4.67 -4.43,-8.06 0,-5.27 4.27,-9.54 9.54,-9.54zm-1152.8 193.89c9.2,0 16.66,7.46 16.66,16.66 0,9.2 -7.46,16.66 -16.66,16.66 -9.2,0 -16.66,-7.46 -16.66,-16.66 0,-9.2 7.46,-16.66 16.66,-16.66z"/>
 </g>
</svg>
