<?xml version="1.0" encoding="UTF-8"?>
<!DOCTYPE svg PUBLIC "-//W3C//DTD SVG 1.1//EN" "http://www.w3.org/Graphics/SVG/1.1/DTD/svg11.dtd">
<!-- Creator: CorelDRAW -->
<svg xmlns="http://www.w3.org/2000/svg" xml:space="preserve" width="42.5042mm" height="40.5522mm" version="1.1" style="shape-rendering:geometricPrecision; text-rendering:geometricPrecision; image-rendering:optimizeQuality; fill-rule:evenodd; clip-rule:evenodd"
viewBox="0 0 190.3 181.57"
 xmlns:xlink="http://www.w3.org/1999/xlink"
 xmlns:xodm="http://www.corel.com/coreldraw/odm/2003">
 <defs>
  <style type="text/css">
   <![CDATA[
    .fil0 {fill:#EEEEEF}
   ]]>
  </style>
 </defs>
 <g id="Layer_x0020_1">
  <metadata id="CorelCorpID_0Corel-Layer"/>
  <g id="_2788930264992">
   <g>
    <path class="fil0" d="M90.78 0c21.5,0 41.25,7.48 56.8,19.97l-2.5 14.17c-14.1,-13.52 -33.23,-21.83 -54.3,-21.83 -43.34,0 -78.47,35.13 -78.47,78.47 0,39.95 29.86,72.93 68.48,77.84 1.36,5.43 4.79,10.04 9.41,12.94 -49.87,-0.32 -90.2,-40.83 -90.2,-90.78 0,-50.14 40.65,-90.78 90.78,-90.78zm85.38 121.69c-6.75,18.63 -19.41,34.42 -35.73,45.1l3.2 -18.01c15.74,-14.35 25.62,-35.02 25.62,-58 0,-12.44 -2.9,-24.2 -8.05,-34.66 0.94,0.8 1.72,1.52 2.19,2.01 0.51,0.53 0.86,0.89 1.33,1.42 0.37,0.42 0.93,1.11 1.26,1.42l0.49 0.52c0.06,0.16 2.17,3.01 2.83,4.24 0.17,0.31 0.73,1.3 0.9,1.46 0.1,0.3 -0.01,0.01 0.15,0.35 0.05,0.11 0.12,0.24 0.18,0.36 0.16,0.32 0.21,0.47 0.43,0.71 0.07,0.5 0.71,1.68 0.98,2.32 0.35,0.83 0.63,1.59 0.95,2.47 0.6,1.7 1.17,3.5 1.53,5.29 0.6,1.88 1.06,6.1 1.18,8.29 0.08,1.53 0.13,2.96 0.13,4.51 -0,0.88 -0.31,4.3 -0.1,4.79 -0.3,0.81 -0.56,4.34 -0.75,5.54 -1.13,7.19 -4.44,19.16 -9.15,24.48 -0.38,0.43 -2.03,1.98 -0.99,2.87 1.35,1.16 3.93,-0.89 4.89,-1.64 2.13,-1.67 4.41,-3.71 6.53,-5.85z"/>
    <path class="fil0" d="M90.78 23.28c20.88,0 39.54,9.48 51.92,24.37l-0.35 1.99c-12.09,-15.14 -30.7,-24.83 -51.57,-24.83 -36.43,0 -65.97,29.54 -65.97,65.97 0,32.59 23.63,59.65 54.69,65.01 -0.07,0.5 -0.12,1 -0.16,1.52 -31.83,-5.44 -56.06,-33.15 -56.06,-66.53 0,-37.28 30.22,-67.5 67.5,-67.5zm65.83 52.52c1.09,4.82 1.67,9.83 1.67,14.98 0,13.55 -3.99,26.16 -10.87,36.74l0.74 -4.15c5.47,-9.61 8.6,-20.73 8.6,-32.58 0,-3.68 -0.3,-7.29 -0.88,-10.81l0.74 -4.18z"/>
    <path class="fil0" d="M90.78 60.51c16.72,0 30.27,13.55 30.27,30.27 0,16.72 -13.55,30.27 -30.27,30.27 -16.72,0 -30.27,-13.55 -30.27,-30.27 0,-16.72 13.55,-30.27 30.27,-30.27zm0 6.21c13.29,0 24.06,10.77 24.06,24.06 0,13.29 -10.77,24.06 -24.06,24.06 -13.29,0 -24.06,-10.77 -24.06,-24.06 0,-13.29 10.77,-24.06 24.06,-24.06z"/>
    <path class="fil0" d="M90.78 79.15c6.42,0 11.63,5.21 11.63,11.63 0,6.42 -5.21,11.63 -11.63,11.63 -6.42,0 -11.63,-5.21 -11.63,-11.63 0,-6.42 5.21,-11.63 11.63,-11.63z"/>
   </g>
   <path class="fil0" d="M132.39 127l-3.72 21.03c-0.35,-0.54 -0.62,-1.38 -1.39,-2.13 -0.6,-0.58 -1.33,-1.18 -2.17,-1.68 -1.06,-0.63 -4.43,-2.32 -5.76,-2.32l-2.52 -0.72c-1.81,-0.29 -4.13,-0.75 -5.9,-0.69 -0.12,-0.01 -0.27,-0.04 -0.39,-0.04 -0.04,0 -0.07,-0 -0.11,0 -0.03,0 -0.06,0.01 -0.09,0.01l-0.16 0.04c-1.72,-0.56 -7.1,0.31 -9.18,0.7 -3.15,0.59 -6.86,2.1 -9.37,3.96 -4.59,3.42 -6.82,7.67 -7.1,13.83 -0.27,5.91 1.59,11.61 5.44,15.67 4.12,4.34 10.2,6.35 17.27,6.83 0.43,0.04 0.38,0.11 0.67,-0.06 1.51,0.47 6.99,-0.39 8.55,-0.66 6.77,-1.2 15.59,-5.14 19.02,-11.54 1.33,-2.48 2.04,-8.43 2.69,-12.08 0.87,-4.9 5.04,-27.98 4.88,-28.29 0.25,-0.4 0.49,-2.16 0.57,-2.64 0.24,-1.36 1.49,-7.66 1.32,-8.04 0.31,-0.59 10.65,-59.56 11.04,-62.13 1.55,0.23 7.65,5.17 9.33,6.94 0.49,0.51 0.83,0.86 1.28,1.36 0.36,0.4 0.89,1.06 1.21,1.37l0.48 0.5c0.06,0.16 2.09,2.89 2.72,4.07 0.16,0.3 0.7,1.25 0.87,1.41 0.1,0.29 -0.01,0.01 0.14,0.34 0.05,0.1 0.12,0.23 0.18,0.35 0.15,0.3 0.2,0.45 0.42,0.68 0.06,0.48 -1.93,1.52 -1.68,2.14 0.33,0.8 0.97,1.16 1.27,2.02 0.58,1.63 1.03,3.28 1.38,5 0.58,1.8 -0.61,3.6 -0.5,5.71 0.08,1.47 1.57,2.57 1.57,4.06 -0,0.84 -1.2,4.67 -1,5.14 -0.29,0.78 -0.72,4.35 -0.9,5.5 -1.08,6.91 -5.32,21.16 -9.85,26.27 -0.37,0.41 2.72,1.49 3.72,2.34 1.3,1.12 3.78,-0.86 4.69,-1.58 3.69,-2.9 7.87,-6.95 10.71,-10.64 1.67,-2.18 3.3,-4.6 4.59,-7.28 1.06,-2.19 2.87,-6.69 3.08,-9.29 0.47,-2.18 0.57,-4.4 0.61,-6.53 0.01,-0.87 -0.16,-5.18 -0.44,-5.64 -0.06,-2.08 -1.42,-7.07 -2.12,-9.13 -1.84,-5.43 -4.45,-11.12 -7.23,-16.02 -0.35,-0.62 -0.68,-1.3 -1.04,-1.9 -0.37,-0.63 -0.72,-1.26 -1.07,-1.89l-5.85 -9.73c-0.11,-0.18 -0.15,-0.3 -0.25,-0.49 -1.51,-2.72 -3.27,-5.44 -4.92,-8.41 -5.86,-10.54 -4.81,-13.15 -16.47,-20.7l-16.64 94.36 -1.88 10.63z"/>
  </g>
 </g>
</svg>
