<?xml version="1.0" encoding="UTF-8"?>
<!DOCTYPE svg PUBLIC "-//W3C//DTD SVG 1.1//EN" "http://www.w3.org/Graphics/SVG/1.1/DTD/svg11.dtd">
<!-- Creator: CorelDRAW -->
<svg xmlns="http://www.w3.org/2000/svg" xml:space="preserve" width="29.4209mm" height="27.8568mm" version="1.1" style="shape-rendering:geometricPrecision; text-rendering:geometricPrecision; image-rendering:optimizeQuality; fill-rule:evenodd; clip-rule:evenodd"
viewBox="0 0 81.93 77.58">
 <defs>
  <style type="text/css">
   <![CDATA[
    .fil0 {fill:#a89f8e}
   ]]>
  </style>
 </defs>
 <g id="Layer_x0020_1">
  <metadata id="CorelCorpID_0Corel-Layer"/>
  <path class="fil0" d="M55.85 27.03c6.37,4.28 10.76,11.27 11.53,19.32 -1.54,-1.33 -2.77,-1.73 -4.46,-0.62 -1.67,-7.55 -7.18,-13.66 -14.38,-16.18 0.59,-0.28 2.28,-0.32 3.54,-0.5 1.28,-0.39 1.77,-0.98 3.05,-1.37 0.53,-0.16 0.77,-0.38 0.72,-0.65zm-52.37 41.92c0.5,-0.56 1.47,-2.92 1.69,-3.62 0.91,-2.71 1.58,-4.5 2,-5.37 0.89,-1.81 2.16,-3.55 3.54,-4.14 -1.8,-4.1 -2.8,-8.63 -2.8,-13.39 0,-5.2 1.19,-10.11 3.31,-14.49 -0.93,-0.58 -1.55,-1.61 -1.55,-2.79 0,-1.82 1.47,-3.29 3.29,-3.29 0.62,0 1.2,0.17 1.7,0.47 2.83,-3.73 6.44,-6.85 10.57,-9.11 -1.69,-4.09 -4.01,-8 -7.35,-10.15 -0.21,-0.13 -0.19,-0.24 0.04,-0.32 1.86,-0.66 3.76,-1.13 5.71,-1.39 1.85,-0.25 2.78,-0.38 2.81,-0.39 4.81,-0.75 9.08,-1.06 12.81,-0.94 2.09,0.07 3.39,0.1 3.87,0.1 4.5,0 8.97,0.33 13.4,0.99 2.63,0.39 3.95,0.59 3.95,0.59 1.27,0.24 2.55,0.6 3.85,1.09 0.4,0.15 0.4,0.29 -0.01,0.42 -2.66,0.82 -5.5,5.26 -7.44,9.87 4.16,2.23 7.8,5.32 10.66,9.03 0.4,-0.17 0.83,-0.26 1.29,-0.26 1.82,0 3.29,1.47 3.29,3.29 0,0.99 -0.44,1.88 -1.13,2.48 2.22,4.46 3.47,9.49 3.47,14.8 0,4.84 -1.03,9.43 -2.89,13.57 1.24,0.72 2.37,2.31 3.17,3.95 0.42,0.87 1.09,2.66 2,5.37 0.22,0.7 1.18,3.06 1.69,3.62 2.7,0.89 3.01,6.97 3.48,8.02 0.02,0.15 -0.06,0.28 -0.18,0.34 -0.76,0.37 -1.5,0.34 -2.21,-0.07 -0.13,-0.07 -0.23,-0.19 -0.28,-0.34 -0.35,-1.01 -0.54,-2.05 -0.56,-3.13 -0,-0.16 -0.05,-0.31 -0.13,-0.43 -0.58,-0.87 -1.36,-1.3 -2.33,-1.3 -0.31,0 -0.54,0.32 -0.48,0.67l0.59 3.41c0.06,0.33 -0.23,0.63 -0.61,0.62 -2.38,-0.06 -4.51,-0.49 -6.41,-1.31 -1.01,-0.43 -1.99,-0.38 -2.94,0.17 -1.63,0.94 -3.58,1.35 -5.85,1.25 -0.26,-0.01 -0.5,-0.15 -0.65,-0.36 -0.71,-1.03 -1.6,-1.13 -2.66,-0.31 -1.33,1.03 -2.78,1.32 -4.36,0.88 -0.11,-0.03 -0.15,-0.16 -0.08,-0.25 1.48,-1.87 3.37,-2.92 5.69,-3.16 0.28,-0.03 1.04,0.04 2.28,0.21 0.96,0.13 1.92,0.02 2.86,-0.32 0.52,-0.19 1.99,-1.14 4.41,-2.86 1.51,-1.07 3.1,-1.01 4.75,0.17 0.9,0.64 1.58,0.46 2.04,-0.54 1.54,-3.34 -0.05,-8.67 -5.43,-6.74 -1.13,0.4 -1.99,1.07 -2.59,2.01 -1.91,2.98 -0.46,4.83 -0.92,5.33 -0.1,0.1 -1.27,1.29 -1.99,0.97 -1.2,-0.54 -2.69,-1.58 -2.46,-2.14 0.2,-0.47 0.4,-0.92 0.59,-1.37 -0.88,0.71 -1.79,1.37 -2.74,1.98 -0.16,-0.22 -0.36,-0.43 -0.59,-0.64 1.47,-0.95 2.86,-2.01 4.16,-3.17 2.15,-4.65 3.88,-7.55 4.44,-8.58 1.12,-2.02 2.33,-2.58 3.49,-2.29 1.81,-4.04 2.82,-8.53 2.82,-13.24 0,-5.14 -1.2,-10 -3.33,-14.32 -0.44,0.21 -0.93,0.33 -1.44,0.33 -1.82,0 -3.29,-1.47 -3.29,-3.29 0,-1.05 0.49,-1.99 1.26,-2.59 -2.76,-3.56 -6.25,-6.52 -10.24,-8.67 -0.92,2.31 -1.59,4.62 -1.89,6.48 -0.23,0.86 -0.55,0.9 -0.98,0.12 -1.8,-3.32 -6,-14.84 -7.58,-16 -0.91,-0.67 -2.4,-1.15 -3.64,-1.28 -1.29,-0.13 -2.41,-0.11 -3.35,0.07 -2.46,0.46 -5.24,4.24 -6.1,6.47 -1.45,3.74 -2.91,7.48 -4.4,11.2 -0.32,0.8 -0.59,0.79 -0.82,-0.05 -0.58,-2.11 -1.3,-4.5 -2.22,-6.87 -4,2.2 -7.48,5.23 -10.22,8.84 0.57,0.59 0.92,1.4 0.92,2.28 0,1.82 -1.47,3.29 -3.29,3.29 -0.33,0 -0.66,-0.05 -0.96,-0.14 -2.07,4.27 -3.24,9.07 -3.24,14.14 0,4.69 1,9.15 2.79,13.18 1.03,-0.06 2.08,0.58 3.07,2.36 0.53,0.97 2.11,3.62 4.09,7.83 1.42,1.37 2.96,2.6 4.61,3.69 -0.24,0.17 -0.48,0.36 -0.7,0.57 -1.04,-0.7 -2.04,-1.46 -3,-2.28 0.28,0.62 0.57,1.28 0.85,1.96 0.23,0.56 -1.26,1.6 -2.46,2.14 -0.72,0.32 -1.89,-0.86 -1.99,-0.97 -0.46,-0.49 0.99,-2.35 -0.92,-5.33 -0.6,-0.94 -1.46,-1.61 -2.59,-2.01 -5.37,-1.93 -6.97,3.4 -5.43,6.74 0.46,1.01 1.14,1.19 2.04,0.54 1.65,-1.19 3.23,-1.24 4.75,-0.17 2.43,1.72 3.9,2.67 4.41,2.86 0.95,0.34 1.9,0.45 2.86,0.32 1.24,-0.17 2,-0.24 2.28,-0.21 2.32,0.24 4.21,1.3 5.69,3.16 0.07,0.09 0.03,0.22 -0.08,0.25 -1.58,0.44 -3.03,0.15 -4.36,-0.88 -1.06,-0.82 -1.94,-0.72 -2.66,0.31 -0.15,0.22 -0.39,0.35 -0.65,0.36 -2.27,0.1 -4.22,-0.31 -5.85,-1.25 -0.95,-0.55 -1.93,-0.6 -2.94,-0.17 -1.9,0.81 -4.04,1.25 -6.41,1.31 -0.37,0.01 -0.66,-0.29 -0.61,-0.62l0.59 -3.41c0.06,-0.35 -0.17,-0.67 -0.48,-0.67 -0.97,0 -1.75,0.43 -2.33,1.3 -0.08,0.12 -0.12,0.27 -0.13,0.43 -0.02,1.07 -0.21,2.12 -0.56,3.13 -0.05,0.15 -0.15,0.27 -0.28,0.34 -0.71,0.41 -1.45,0.44 -2.21,0.07 -0.12,-0.06 -0.2,-0.2 -0.18,-0.34 0.47,-1.06 0.78,-7.14 3.48,-8.02zm10.36 -3.19c0.72,0.77 1.12,1.72 1.2,2.85 0.01,0.16 -0.04,0.31 -0.14,0.41 -0.36,0.36 -0.81,0.42 -1.36,0.17 -0.47,-0.21 -0.94,-0.43 -1.41,-0.65 -0.95,-0.45 -1.89,-0.42 -2.82,0.08 -0.45,0.24 -0.86,0.42 -1.22,0.52 -0.26,0.08 -0.52,-0.1 -0.54,-0.37 -0.13,-1.49 0.37,-2.61 1.48,-3.36 0.77,-0.51 1.62,-0.74 2.56,-0.69 0.89,0.05 1.64,0.4 2.24,1.04zm9.41 6.87c-0.47,0.08 -0.76,-0.02 -0.87,-0.32 -0.04,-0.12 -0.01,-0.28 0.08,-0.42 1.23,-1.88 2.92,-2.76 5.06,-2.64 0.43,0.03 0.85,-0 1.27,-0.09 1.49,-0.29 1.97,-0.18 1.46,0.33 -0.32,0.32 -0.5,0.5 -0.53,0.53 -0.81,0.94 -1.6,1.66 -2.37,2.15 -1.07,0.69 -2.29,0.85 -3.65,0.47 -0.14,-0.04 -0.29,-0.04 -0.46,-0.01zm44.83 -6.87c-0.72,0.77 -1.12,1.72 -1.2,2.85 -0.01,0.16 0.04,0.31 0.14,0.41 0.36,0.36 0.81,0.42 1.36,0.17 0.47,-0.21 0.94,-0.43 1.41,-0.65 0.95,-0.45 1.89,-0.42 2.82,0.08 0.45,0.24 0.86,0.42 1.22,0.52 0.26,0.08 0.52,-0.1 0.54,-0.37 0.13,-1.49 -0.37,-2.61 -1.48,-3.36 -0.77,-0.51 -1.62,-0.74 -2.56,-0.69 -0.89,0.05 -1.64,0.4 -2.24,1.04zm-9.41 6.87c0.47,0.08 0.76,-0.02 0.87,-0.32 0.04,-0.12 0.01,-0.28 -0.08,-0.42 -1.23,-1.88 -2.92,-2.76 -5.06,-2.64 -0.43,0.03 -0.85,-0.01 -1.27,-0.09 -1.49,-0.29 -1.97,-0.18 -1.46,0.33 0.32,0.32 0.5,0.5 0.53,0.53 0.81,0.94 1.6,1.66 2.37,2.15 1.07,0.69 2.29,0.85 3.65,0.47 0.14,-0.04 0.29,-0.04 0.46,-0.01zm-26.59 4.19c-1.95,-1.8 -4.52,-2.73 -4.61,-3.56 2.87,-1.36 2.38,-3.39 7.68,-5.27 2.05,-0.73 3.21,-3.43 5.82,-3.5 0,-0 0.04,-0 0.04,0 2.61,0.08 3.78,2.78 5.82,3.5 5.29,1.88 4.81,3.91 7.68,5.27 -0.09,0.83 -2.65,1.76 -4.61,3.56 -1.28,1.18 -2.82,0.42 -4.55,0.64 2.28,-1.46 3.96,-2.82 4.48,-3.9 -2.72,1.6 -5.59,2.83 -8.82,3.27l-0.04 0c-3.22,-0.44 -6.1,-1.68 -8.82,-3.27 0.51,1.08 2.19,2.43 4.48,3.9 -1.73,-0.22 -3.27,0.54 -4.55,-0.64zm2.13 -4.25c-0.58,0.4 -1.72,1.03 -1.71,0.22 0,-1.17 0.26,-1.47 1.28,-2.94 0.43,-0.62 1.57,-0.25 1.53,0.29 -0.1,1.22 -0.59,2.09 -1.09,2.43zm3.07 -4.68c0.11,-0.2 0.51,-0.12 0.64,0.07 -0.41,2.6 -0.85,4.36 -1.71,6.16 -0.16,0.34 -0.68,0.16 -0.66,-0.11 0.11,-1.57 0.96,-4.65 1.73,-6.11zm10.49 4.68c0.58,0.4 1.72,1.03 1.71,0.22 -0,-1.17 -0.26,-1.47 -1.28,-2.94 -0.43,-0.62 -1.57,-0.25 -1.53,0.29 0.1,1.22 0.59,2.09 1.09,2.43zm-3.07 -4.68c-0.11,-0.2 -0.51,-0.12 -0.64,0.07 0.41,2.6 0.85,4.36 1.71,6.16 0.16,0.34 0.67,0.16 0.66,-0.11 -0.11,-1.57 -0.96,-4.65 -1.73,-6.11zm-9.34 -57.83c-0.82,4.17 -1.51,6.2 -2.03,10.08 -0.04,1.1 -1.96,3.1 -2.38,3.5 -1.3,1.23 -2.72,1.96 -3.93,2.44 -1.3,0.56 -1.18,0.34 -0.19,-1.01 1.09,-1.26 2.73,-3.21 3.4,-4.79 0.89,-2.17 2.42,-6.17 3.57,-8.64 1.33,-3.12 2.1,-3.48 1.56,-1.58zm11.5 0c0.82,4.17 1.51,6.2 2.03,10.08 0.04,1.1 1.96,3.1 2.38,3.5 1.3,1.23 2.72,1.96 3.93,2.44 1.3,0.56 1.18,0.34 0.19,-1.01 -1.09,-1.26 -2.73,-3.21 -3.4,-4.79 -0.89,-2.17 -2.42,-6.17 -3.57,-8.64 -1.33,-3.12 -2.1,-3.48 -1.56,-1.58zm2.85 13.41c0.64,0.16 1.12,0.47 1.44,0.93 0.52,0.74 1.14,1.3 1.84,1.66 0.3,0.16 0.5,0.3 0.59,0.42 0.27,0.36 0.11,0.63 -0.49,0.81 -1.09,0.33 -1.5,0.82 -2.59,1.16 -1.08,0.15 -2.54,0.19 -3.02,0.44 -1.38,0.72 -2.66,1.6 -3.81,2.63 4.84,0.7 9.44,3.47 12.25,8.39l-0 0c1.54,2.29 2.57,4.96 2.9,7.83l1.19 0.07c2.47,-0.03 4.49,-4.44 7.42,-0.1 0.29,-0.01 2.83,-1.23 2.89,1.21 0.06,2.44 -2.12,1.52 -2.82,1.64 -2.97,3.88 -4.92,-0.52 -7.68,-0.6l-0.88 0.14c-0.13,7.83 -5.32,14.42 -12.44,16.65 -0.5,-0.43 -0.92,-0.82 -1.31,-1.18 6.83,-1.73 11.93,-7.78 12.24,-15.07 -0.95,0.57 -2.07,0.23 -2.72,-0.27 -0.15,-0.11 -0.58,0.02 -0.56,0.21 -0.87,1.85 -2.47,3.42 -2.02,2.43 1.61,-3.53 1.15,-4.23 0.27,-8.04 -0.23,-1 1.18,1.28 1.43,2.51 0.03,0.15 0.27,0.18 0.52,0.12 0.83,-0.92 1.76,-1.12 2.91,0.17l0.05 0c-0.33,-2.5 -1.23,-4.81 -2.56,-6.82 -6.57,5.76 -8.87,12.17 -10.88,19.66 -0.46,1.71 -6.1,1.82 -6.47,-0.08 -1.75,-9.04 -4.52,-14.77 -9.89,-19.38 -1.26,1.96 -2.11,4.21 -2.43,6.62 1.15,-1.3 2.08,-1.1 2.91,-0.17 0.24,0.06 0.49,0.03 0.52,-0.12 0.26,-1.23 1.66,-3.51 1.43,-2.51 -0.88,3.81 -1.34,4.5 0.27,8.04 0.45,0.99 -1.15,-0.58 -2.02,-2.43 0.02,-0.19 -0.41,-0.32 -0.56,-0.21 -0.64,0.49 -1.73,0.83 -2.67,0.3 0.31,7.12 5.2,13.04 11.79,14.92 -0.42,0.35 -0.83,0.74 -1.23,1.17 -6.93,-2.34 -11.94,-8.84 -12.06,-16.52l-0.93 -0.15c-2.76,0.08 -4.71,4.48 -7.68,0.6 -0.7,-0.12 -2.87,0.79 -2.82,-1.64 0.06,-2.44 2.6,-1.22 2.89,-1.21 2.93,-4.34 4.95,0.07 7.42,0.1l1.24 -0.07c0.36,-3.07 1.5,-5.9 3.22,-8.29l-0 -0c2.73,-4.56 7.18,-7.23 11.9,-7.93 -0.67,-0.45 -1.36,-0.8 -1.95,-1.47 -0.49,-0.55 -1.09,-0.94 -1.8,-1.16 -1.02,-0.32 -1.72,-0.84 -2.84,-0.55 -0.19,0.05 -0.35,0.06 -0.47,0.02l-3.2 -1.07c-0.17,-0.06 -0.23,-0.28 -0.11,-0.43 1.14,-1.49 2.36,-2.54 3.68,-3.16 0.93,-0.45 2.68,1.02 4.73,-1.52 0.09,-0.11 0.09,-0.26 0.02,-0.38 -1.53,-2.38 -1.69,-4.58 -0.48,-6.6 0.94,-1.56 2.23,-2.52 3.88,-2.89 1.83,-0.41 3.55,0.2 5.15,1.84 2.34,2.4 2.29,4.87 0.52,7.48 -0.41,0.6 -0.28,1.04 0.4,1.33 0.53,0.23 0.87,0.38 1.04,0.46 0.78,0.36 1.59,0.37 2.44,0.05zm-7.14 -8.29c-3.47,-1.3 -6.7,1.89 -5.07,6.08 0.12,0.31 0.5,0.43 0.77,0.25 1.01,-0.68 2.34,-1.47 3.58,-1.12 0.81,0.23 1.62,0.62 2.45,1.17 0.22,0.15 0.51,0.04 0.58,-0.22 0.57,-2.08 0.29,-3.78 -0.83,-5.1 -0.42,-0.49 -0.92,-0.85 -1.49,-1.06zm-1.07 -11.19c3.6,0.15 4.71,5.47 4.71,9.5 -1.05,-1.09 -1.41,-4.35 -5.04,-4.38 -3.12,-0.02 -4.05,2.36 -5.29,4.28 0.04,-1.88 1.14,-9.58 5.62,-9.4zm25.86 47.6c-0.73,7.06 -4.24,13.29 -9.43,17.57 -0.19,-0.11 -0.41,-0.21 -0.64,-0.3l-2.53 -0.66c4.87,-3.75 8.15,-9.48 8.63,-15.98 1.24,0.79 2.52,0.84 3.97,-0.62zm-33.91 -15.53c0.06,0.28 -0.86,0.86 -1.06,1.19 -0.36,0.6 0.14,1.38 1.24,2.51 1.11,1.13 2.9,3.3 3.82,6.63 0.24,0.87 1.75,3.46 1.59,3.46 -0.64,0 -2.35,-2.41 -2.44,-3.35 -0.03,-0.33 -1.11,-2.48 -3.01,-4.8 -0.04,-0.49 -3.31,-3.36 -1.62,-5.08 0.41,-0.41 1.46,-0.6 1.47,-0.57zm15.48 0c-0.06,0.28 0.86,0.86 1.06,1.19 0.36,0.6 -0.14,1.38 -1.24,2.51 -1.11,1.13 -2.9,3.3 -3.82,6.63 -0.24,0.87 -1.75,3.46 -1.59,3.46 0.64,0 2.35,-2.41 2.44,-3.35 0.03,-0.33 1.11,-2.48 3.01,-4.8 0.04,-0.49 3.31,-3.36 1.62,-5.08 -0.41,-0.41 -1.46,-0.6 -1.47,-0.57zm-15.18 -6.49c-7.16,2.54 -12.64,8.64 -14.3,16.18 -1.69,-1.13 -2.92,-0.76 -4.45,0.54 0.75,-7.75 4.86,-14.51 10.86,-18.82 0.03,0.09 0.09,0.16 0.19,0.19l3.77 1.27c0.13,0.04 0.33,0.03 0.55,-0.02 1.32,-0.34 2.14,0.27 3.35,0.65l0.03 0.01zm-14.76 22.61c0.46,6.41 3.65,12.07 8.4,15.84l-2.56 0.69c-0.21,0.07 -0.41,0.16 -0.61,0.25 -5.04,-4.26 -8.46,-10.39 -9.19,-17.31 1.44,1.43 2.72,1.34 3.96,0.54z"/>
 </g>
</svg>
